<svg viewBox="0 0 200 200" xmlns="http://www.w3.org/2000/svg">
  <path fill="#6355D5" d="M38.3,-73.3C45.7,-62,45.1,-43.9,51.5,-30.5C57.8,-17.1,71.1,-8.6,72.5,0.8C73.8,10.1,63.2,20.2,54,28.7C44.8,37.2,37.1,44.1,28.4,49.8C19.6,55.5,9.8,60.1,-1.9,63.3C-13.5,66.5,-27.1,68.4,-40.3,65.3C-53.5,62.2,-66.4,54,-71.9,42.3C-77.3,30.5,-75.3,15.3,-74,0.7C-72.7,-13.8,-72.3,-27.6,-67.3,-40.2C-62.4,-52.7,-52.9,-64,-40.9,-72.7C-29,-81.3,-14.5,-87.4,0.5,-88.2C15.4,-89.1,30.9,-84.6,38.3,-73.3Z" transform="translate(100 100)" />
</svg>