<!-- Generator: Adobe Illustrator 17.0.0, SVG Export Plug-In  -->
<svg version="1.1"
	 xmlns="http://www.w3.org/2000/svg" xmlnsXlink="http://www.w3.org/1999/xlink" xmlnsa="http://ns.adobe.com/AdobeSVGViewerExtensions/3.0/"
	 x="0px" y="0px" width="2502.057px" height="1421.738px" viewBox="0 0 2502.057 1421.738"
	 enable-background="new 0 0 2502.057 1421.738" xml:space="preserve">
<defs>
</defs>
<g>
	<g>
		<path fill="#00DBEF" d="M2414.381,857.851c-43.65,30.282-115,38.821-195.857,24.861
			c-130.332-22.483-248.902-97.33-273.441-136.034c-18.847-29.632-23.182-65.302-18.469-102.946
			c6.903-55.29,93.745-318.08,264.051-357.963c61.55-14.414,142.896-5.223,232.288,79.142
			c56.67,53.132,76.882,127.988,78.941,205.276C2504.678,669.998,2471.666,818.156,2414.381,857.851z"/>
		<path fill="#00DBEF" d="M2322.332,1412.816H194.169c-10.346-129.363,4.434-301.725,48.33-436.11
			c58.736-180.03,183.062-347.509,442.683-344.137c557.816,7.246,515.007-389.42,905.477-414.805
			c159.021-10.34,255.979,176.834,227.381,444.243C1769.664,1114.356,2315.25,786.422,2322.332,1412.816z"/>
		<g>
			<path fill="#FFDE69" d="M981.207,528.416h-70.255c-18.482,0-33.603,15.123-33.603,33.604v57.871
				c0,18.481,15.12,33.603,33.603,33.603h70.255c18.481,0,33.603-15.122,33.603-33.603V562.02
				C1014.81,543.538,999.688,528.416,981.207,528.416z"/>
			<g>
				<polygon fill="#E69D43" points="890.661,564.66 985.707,556.457 936.063,588.706 				"/>
				<polygon fill="#FF753C" points="939.322,639.821 985.707,556.457 935.966,588.556 				"/>
			</g>
		</g>
		<g>
			<g>
				<path fill="#F1A34F" d="M1026.089,732.369H879.126c0,0-65.155,4.411-41.767,113.812c23.39,109.4,100.238,331.116,76.851,398.18
					h163.722L1026.089,732.369z"/>
				<linearGradient id="SVGID_1_" gradientUnits="userSpaceOnUse" x1="917.817" y1="988.3648" x2="1359.5371" y2="988.3648">
					<stop  offset="0" style="stop-color:#F1CC52"/>
					<stop  offset="1" style="stop-color:#FF6935"/>
				</linearGradient>
				<path fill="url(#SVGID_1_)" d="M1358.08,1132.745c-19.456-95.515-50.773-256.63-67.383-342.468
					c-6.506-33.628-35.944-57.908-70.193-57.908H989.335c-44.375,0-78.033,40.001-70.446,83.723l64.023,368.989
					c6.457,37.209,40.738,62.981,78.276,58.845l234.659-25.852C1337.655,1213.468,1366.475,1173.958,1358.08,1132.745z"/>
			</g>
			<g>
				<path fill="#522B73" d="M1417.368,833.258l38.357,403.239c0,0-43.57,46.522-216.054,62.475
					c-4.299,0.423-8.67,0.822-13.151,1.168c-98.998,7.997-135.747-119.72-148.598-238.929
					c-10.976-101.664-4.557-197.143-4.557-197.143C1304.475,766.761,1417.368,833.258,1417.368,833.258z"/>
				<path fill="#522B73" d="M1793.726,1153.994c-34.238,15.896-237.868,29.234-257.429,23.604
					c-10.029-2.897-52.012-39.875-94.248-85.365c-0.038-0.027-0.038-0.027-0.038-0.027c-39.969-43.028-80.266-93.673-93.859-130.121
					c-27.956-74.897-3.924-141.396-3.924-141.396s51.958-0.218,73.141,12.57c21.187,12.82,142.29,235.862,158.481,241.747
					c16.191,5.917,208.035,16.884,229.998,27.308C1805.848,1102.313,1827.93,1138.104,1793.726,1153.994z"/>
				<path fill="#EA9E6A" d="M1297.21,820.193l-0.049,12.61c0,0,3.495,39.429-45.056,45.263c-48.552,5.85-85.37-15.247-84.102-45.68
					c4.338-23.57,9.114-39.757,9.408-59.254c0.109-7.246-0.398-14.933-1.761-23.611l94.093-2.023l27.72,4.485L1297.21,820.193z"/>
				<path fill="#D88D59" d="M1297.464,751.983l-0.254,68.21c-9.988,4.662-21.261,7.517-33.905,7.535
					c-43.246,0.067-86.291-69.528-87.653-78.207L1297.464,751.983z"/>
				<path fill="#EA9E6A" d="M1303.007,785.12c0,0-120.474,24.529-134.595-50.73c-14.122-75.261-39.181-122.781,37.142-141.625
					c76.322-18.843,96.699,7.062,107.521,31.037C1323.899,647.774,1333.98,776.799,1303.007,785.12z"/>
				<path fill="#462160" d="M1336.422,567.833c0,0-33.61-2.532-73.274-19.705c-32.192-13.938-72.757,1.529-85.923,8.491
					c0.352-2.124,1.195-5.024,3.201-7.934c0,0-5.908,4.204-6.771,10.07c-0.608,0.449-0.881,0.76-0.724,0.863
					c0,0-6.708-1.215-11.013,0.73c0,0,3.015-0.436,4.095,1.501c0.114,0.204,0.284,0.378,0.483,0.532
					c-50.148,24.327-54.659,103.646-38.482,121.973c19.464,22.05,42.84,71.736,42.84,71.736s8.477-11.76,4.914-31.185
					c-3.563-19.423,13.218-19.449,34.401-28.315c21.182-8.864,3.48-33.565,22.005-48.609c18.523-15.042,86.541-6.315,85.64-17.795
					C1343.043,620.953,1336.427,570.419,1336.422,567.833z"/>
				<path fill="#462160" d="M1239.672,1298.972c-4.299,0.423-8.67,0.822-13.151,1.168c-98.998,7.997-135.747-119.72-148.598-238.929
					C1089.888,1067.098,1252.178,1149.697,1239.672,1298.972z"/>
				<path fill="#EA9E6A" d="M1151.857,1187.728c0,0,34.906-22.657,46.459-20.592c11.553,2.064,58.805,15.939,65.297,23.665
					c10.125,12.049,27.999,31.19,17.816,33.223c-10.181,2.033-100.06,6.542-110.42,5.653
					C1160.649,1228.789,1136.504,1218.695,1151.857,1187.728z"/>
				<path fill="#522B73" d="M1115.747,850.099c0,0-72.854,16.305-109.333,58.196c-33.155,38.075-129.192,223.982-155.624,290.853
					c-4.209,10.649,7.64,33.822,17.172,40.167c23.871,15.889,73.018,27.422,194.608,7.364l108.693-15.851
					c0,0,7.933-48.822-15.698-59.005l-176.003-2.441c0,0,100.813-104.334,120.287-134.328
					C1119.325,1005.059,1115.747,850.099,1115.747,850.099z"/>
				<path fill="#462160" d="M1793.726,1153.994c-34.238,15.896-237.868,29.234-257.429,23.604
					c-10.029-2.897-52.012-39.875-94.248-85.365c2.086,0.276,68.536,9.733,109.469,45.125c0,0,23.064,10.264,85.834,4.519
					C1700.12,1136.13,1780.728,1134.017,1793.726,1153.994z"/>
				<path fill="#8F3B99" d="M1127.845,843.308c0,0-76.231,17.035-101.261,38.145c-25.029,21.109-20.17,26.843-20.17,26.843
					s9.621,14.587,48.373-1.429c38.752-16.014,89.496-47.688,89.496-47.688S1142.741,843.735,1127.845,843.308z"/>
				<path fill="#8F3B99" d="M1311.634,811.172c0,0,4.592,11.077,11.542,12.586c6.95,1.508,76.049,20.118,85.12,14.81
					c9.072-5.31-16.276-26.925-52.7-28.471C1319.171,808.551,1311.634,811.172,1311.634,811.172z"/>
			</g>
			<g>
				<path fill="#F1A34F" d="M1593.678,1209.358H1360.89l0,0c0-10.248,8.31-18.557,18.557-18.557h214.232V1209.358z"/>
				<polygon fill="#F1A34F" points="1593.01,955.83 1952.919,955.83 1866.59,1209.358 1504.349,1209.358 				"/>
				<polygon fill="#8F3B99" points="1958.217,955.825 1871.891,1209.356 1509.646,1209.356 1598.312,955.825 				"/>
				<path fill="#FFFFFF" d="M1764.177,1080.25c-2.235,9.686-11.901,17.538-21.588,17.538c-9.688,0-15.726-7.853-13.489-17.538
					c2.235-9.688,11.901-17.54,21.588-17.54S1766.414,1070.562,1764.177,1080.25z"/>
				<polygon fill="#522879" points="1958.217,955.825 1871.891,1209.356 1703.377,1209.356 1905.217,955.825 				"/>
			</g>
			<g>
				<g>
					<linearGradient id="SVGID_2_" gradientUnits="userSpaceOnUse" x1="594.6328" y1="1311.088" x2="2041.749" y2="1311.088">
						<stop  offset="0" style="stop-color:#F1CC52"/>
						<stop  offset="1" style="stop-color:#FF6935"/>
					</linearGradient>
					<path fill="url(#SVGID_2_)" d="M2041.749,1412.817H594.633l37.365-103.319c21.735-60.104,78.803-100.139,142.727-100.139
						h1129.167c47.04,0,88.4,31.146,101.386,76.368L2041.749,1412.817z"/>
					<path fill="#FF753C" d="M2330.828,1412.817H935.082l-2.71-52.106c-4.283-82.281,61.28-151.352,143.681-151.352h1116.929
						c47.039,0,88.4,31.146,101.376,76.368L2330.828,1412.817z"/>
					<linearGradient id="SVGID_3_" gradientUnits="userSpaceOnUse" x1="1359.5322" y1="1311.088" x2="2330.8281" y2="1311.088">
						<stop  offset="0" style="stop-color:#F1CC52"/>
						<stop  offset="1" style="stop-color:#FF6935"/>
					</linearGradient>
					<path fill="url(#SVGID_3_)" d="M2330.828,1412.817H1478.48c-47.354-82.173-90.492-156.252-118.948-203.458h833.449
						c47.039,0,88.4,31.146,101.376,76.368L2330.828,1412.817z"/>
				</g>
			</g>
		</g>
		<g>
			<g>
				<path fill="none" d="M1542.52,214.289h-210.335c-6.059,0-11.015-4.957-11.015-11.015V13.872c0-6.058,4.956-11.015,11.015-11.015
					h210.335c6.059,0,11.016,4.957,11.016,11.015v189.402C1553.535,209.332,1548.578,214.289,1542.52,214.289z"/>
				<g>
					<path fill="#FF753C" d="M1499.07,106.839"/>
				</g>
			</g>
			<g>
				<circle fill="#EFD6BD" cx="1446.769" cy="321.986" r="3.568"/>
				<circle fill="#FFDE69" cx="1419.768" cy="295.419" r="6.762"/>
				<circle fill="#FFDE69" cx="1402.466" cy="250.272" r="10.735"/>
			</g>
		</g>
		<g>
			<g>
				<g>
					<g>
						<path fill="#6D36C1" d="M2024.229,810.73c-5.124-2.952-10.233-5.989-15.326-9.122h-0.008v-0.01
							c-19.077-110.202-56.376-184.365-56.895-185.376c-1.185-2.311-0.962-7.486,6.581-8.144c6.597-0.577,10.687,0.854,11.871,3.175
							c0.132,0.255,8.447,17.901,19.669,49.721c1.013,2.863,2.041,5.842,3.094,8.934c2.295,6.738,4.681,14.019,7.132,21.81
							c0.906,2.92,1.836,5.906,2.756,8.976c0.166,0.534,0.329,1.077,0.494,1.62C2012.022,730.284,2019.377,767.648,2024.229,810.73z
							"/>
					</g>
					<g>
						<path fill="#FFDE69" d="M2185.428,875.86c-2.122-0.511-4.253-1.036-6.383-1.58c-1.695-0.428-3.398-0.864-5.102-1.324
							c-0.666-8.737-1.479-17.325-2.418-25.766c-9.704-87.025-36.383-176.945-63.394-230.968c-1.186-2.311-0.962-7.486,6.582-8.144
							c6.597-0.577,10.685,0.854,11.87,3.175c0.049,0.099,1.414,2.986,3.751,8.457c33.356,77.996,46.935,144.061,53.168,224.346
							C2184.293,854.42,2184.943,865.034,2185.428,875.86z"/>
					</g>
					<g>
						<path fill="#6D36C1" d="M1978.763,671.821c-2.483,0-4.681-1.586-5.113-3.829c-0.483-2.507,1.417-4.886,4.244-5.314
							c4.497-0.681,110.682-16.533,158.211-3.307c2.737,0.76,4.259,3.345,3.4,5.771c-0.859,2.427-3.775,3.78-6.512,3.014
							c-45.142-12.56-152.273,3.436-153.35,3.6C1979.348,671.799,1979.054,671.821,1978.763,671.821z"/>
					</g>
					<g>
						<path fill="#6D36C1" d="M1990.899,702.312c-2.483,0-4.68-1.585-5.113-3.829c-0.484-2.507,1.417-4.886,4.244-5.315
							c4.498-0.68,110.683-16.537,158.21-3.306c2.736,0.76,4.26,3.345,3.4,5.771c-0.859,2.426-3.775,3.781-6.512,3.014
							c-45.161-12.568-152.272,3.436-153.348,3.6C1991.485,702.291,1991.19,702.312,1990.899,702.312z"/>
					</g>
				</g>
			</g>
			<path fill="#522B73" d="M2458.152,799.041c3.651-7.787,7.095-16.045,10.322-24.672h-176.192c-3.397,0-6.17,2.773-6.17,6.17
				v12.332c0,3.39,2.772,6.17,6.17,6.17H2458.152z"/>
			<g>
				<g>
					<path fill="#522878" d="M2086.5,447.189c-0.543-2.086-7.19-24.375-41.953-17.911c0,0,17.413-1.737,21.998,5.07
						c0,0-13.594-6.655-22.347-1.605c-8.749,5.05-10.621,22.756-9.476,28.189c1.146,5.434,10.246,21.752,16.547,21.913
						c2.387,0.061,4.958-0.666,7.233-1.593c-1.039,2.831-1.99,5.913-2.801,9.299c-7.503,31.312,12.817,55.783,23.795,50.148
						c7.04-3.613,14.206,10.999,14.206,10.999l57.364-77.213C2151.067,474.485,2112.163,425.205,2086.5,447.189z"/>
					<path fill="#8F3B99" d="M2414.381,857.851c-43.65,30.282-115,38.821-195.857,24.861c-10.876-1.876-21.915-4.155-33.096-6.853
						c-2.122-0.511-4.253-1.036-6.383-1.58c-1.695-0.428-3.398-0.864-5.102-1.324c-0.666-0.173-1.34-0.354-2.015-0.534
						c-3.373-0.898-6.746-1.835-10.128-2.815h-0.008c-1.226-0.354-2.45-0.707-3.676-1.077c-5.513-1.62-11.032-3.341-16.577-5.166
						c0,0-0.009,0-0.017,0c-1.538-0.503-3.061-1.021-4.599-1.539c-7.749-2.616-15.532-5.413-23.33-8.416
						c-2.657-1.02-5.314-2.057-7.972-3.125l14.897-7.898l21.818-11.559c0,0,7.954,0.123,21.124,0.444
						c1.934,0.041,3.982,0.091,6.13,0.156c3.966,0.099,8.275,0.214,12.891,0.346c15.935,0.46,35.423,1.11,56.253,2.007
						c70.633,3.052,156.607,8.959,171.104,19.884C2411.254,854.734,2412.769,856.132,2414.381,857.851z"/>
					<path fill="#8F3B99" d="M2158.117,868.53c-5.513-1.62-11.032-3.341-16.577-5.166c0,0-0.009,0-0.017,0
						c-1.538-0.503-3.061-1.021-4.599-1.539c-7.749-2.616-15.532-5.413-23.33-8.416c-2.657-1.02-5.314-2.057-7.972-3.125
						l14.897-7.898l34.699,14.717C2155.22,857.103,2154.858,861.685,2158.117,868.53z"/>
					<path fill="#EA8E50" d="M2356.964,749.595c-4.515-13.509-16.976-14.066-16.976-14.066s-11.96-0.875-20.572,1.652
						c-8.611,2.528-22.932-2.471-22.932-2.471s-52.501-18.252-64.776-25.891c-26.335-16.39-73.956-122.631-90.17-109.679
						c0,0-20.955,19.774-9.449,53.784c11.507,34.011,56.993,80.822,84.601,88.381c20.395,5.584,73.688,8.558,80.761,8.934
						c8.8,1.134,20.743,6.224,23.938,6.474c3.533,0.275,11.408-4.965,16.859-4.195
						C2358.124,755.324,2356.964,749.595,2356.964,749.595z"/>
					<path fill="#FFB07B" d="M2150.936,600.378c-21.752,0.31-45.865-1.954-66.474-4.679c3.796-6.351,8.325-24.646,9.608-49.902
						v-0.09l7.663,0.41l36.267,1.935c0,0-0.039,0.53-0.108,1.453c-0.341,4.889-1.423,20.898-1.243,29.915
						c0.07,3.467,1.873,10.951,2.424,11.31C2143.03,594.135,2147.008,597.292,2150.936,600.378z"/>
					<path fill="#EA8E50" d="M2136.644,579.414c-21.98-2.606-36.016-21.91-42.579-33.622c-0.079-0.141-0.16-0.282-0.24-0.421
						l7.905,0.741l36.157,3.387C2137.546,554.388,2136.464,570.397,2136.644,579.414z"/>
					<path fill="#FFB07B" d="M2139.756,562.544c0,0-51.433-0.479-50.642-32.504c0.791-32.025-5.314-53.655,27.559-54.704
						c32.872-1.049,38.948,11.329,41.283,22.083C2160.292,508.172,2153.156,561.843,2139.756,562.544z"/>
					<path fill="#522878" d="M2156.888,479.573c-7.699-9.839-13.759-7.879-17.198-5.07c-27.701-16.174-46.398,6.2-46.398,6.2
						c-4.033,22.889-20.942,35.626-20.942,35.626s9.222,6.029,30.967,1.031c6.644-1.526,12.655-6.064,17.81-11.624
						c-9.12,14.429-21.291,24.68-21.291,24.68c26.111-11.262,37.4-46.884,38.53-50.652c3.064,2.9,9.094,9.182,10.824,15.232
						c2.353,8.221,3.073,25.039,7.981,24.594C2157.17,519.59,2168.433,494.326,2156.888,479.573z"/>
					<path fill="#F1A34F" d="M2190.419,659.748c0,0,33.061,42.733,40.575,43.403c7.515,0.669,4.007,29.111,0,36.43
						c-4.007,7.318-29.741,22.987-46.18,6.136C2168.378,728.866,2190.419,659.748,2190.419,659.748z"/>
					<path fill="#FF753C" d="M2238.736,833.781c-1.48,1.596-3.974,2.747-7.742,3.291c-13.262,1.892-31.869,3.643-47.491,6.984
						c-4.269,0.912-8.317,1.94-11.978,3.134c-7.717,2.501-13.688,5.693-16.306,9.913c-2.146,3.464-7.229,5.412-13.68,6.261
						c0,0-0.009,0-0.017,0c-1.538-0.503-3.061-1.021-4.599-1.539c-7.749-2.616-15.532-5.413-23.33-8.416
						c-2.657-1.02-5.314-2.057-7.972-3.125c-3.168-1.259-6.334-2.559-9.502-3.899c-0.584-0.238-1.168-0.478-1.769-0.741
						c-2.031-0.855-4.063-1.727-6.096-2.615c0.609-21.644,8.745-70.238,2.978-79.896c-4.311-7.206-17.283-40.968-27.023-68.288
						c-1.119-3.126-2.197-6.17-3.209-9.082c-0.954-2.756-1.859-5.389-2.698-7.856c-1.867-5.504-3.382-10.218-4.4-13.656
						c-0.684-2.328-1.136-4.071-1.301-5.101c-0.172-1.077-0.402-2.451-0.633-4.063c-2.008-13.632-4.665-44.053,17.975-53.694
						c0,0,12.274-5.274,13.277-9.608c0.239-1.021,0.272-2.624,0.288-4.426v-0.017c0.049-5.856-0.106-13.878,5.602-11.591
						c0.462,0.19,0.931,0.388,1.391,0.61c7.067,3.282,14.759,9.699,26.721,9.074c7.765-0.403,14.89-2.674,19.653-3.546
						c3.052-0.567,5.133-0.56,5.782,0.879c1.661,3.619-2.847,8.45-0.106,10.893c0.008,0.007,0.008,0.007,0.017,0.015
						c0.033,0.033,0.057,0.059,0.09,0.083c0.017,0.016,0.041,0.032,0.066,0.049c0.017,0.017,0.049,0.033,0.074,0.058
						c0.008,0.009,0.016,0.016,0.024,0.016c3.965,2.994,40.261,25.411,51.604,57.907c0,0,3.077,7.832,5.701,18.279v0.009
						c0.214,0.847,0.429,1.71,0.634,2.591v0.008c1.67,7.174,3.019,15.31,3.019,22.879c0,1.546-0.017,3.108-0.057,4.688
						c-0.14,6.499-0.527,13.228-0.651,19.775c-0.032,1.507-0.049,3.004-0.049,4.484c0.009,3.826,0.149,7.56,0.535,11.113
						c0.008,0.059,0.008,0.107,0.017,0.157c0.058,0.593,0.123,1.168,0.205,1.753c0.724,5.331,1.457,10.554,2.213,15.539
						c0.987,6.466,2,12.538,3.027,17.925c0.247,1.284,0.494,2.535,0.741,3.735c1.052,5.117,2.113,9.479,3.175,12.793
						c1.012,3.183,2.032,5.396,3.027,6.4C2224.446,802.463,2246.93,824.945,2238.736,833.781z"/>
					<path fill="#FFB07B" d="M2362.488,750.406c-0.652-2.009-2.42-5.009-4.091-8.014c-1.67-3.006-14.36-16.03-19.369-17.366
						c-5.01-1.335-29.538,5.514-29.538,5.514s-96.487,1.271-111.875-8.185c-20.037-12.316-68.711-63.307-102.574-89.323
						c-16.143-12.404-28.926-19.134-33.654-13.309c0,0-12.895,12.374,3.338,42.951c0.896,1.712,1.896,3.481,2.998,5.307
						c20.718,34.461,100.311,100.854,132.291,103.038c31.979,2.185,113.088-24.982,113.088-24.982s8.443-2.306,12.785,1.033
						c4.34,3.341,21.107,2.72,23.493,5.007C2353.847,756.355,2363.574,753.746,2362.488,750.406z"/>
					<path fill="#F1A34F" d="M2209.763,774.722c-1.259-0.979-2.822-2.18-4.648-3.587h-0.017
						c-7.791-6.021-20.385-15.654-34.963-26.595c-6.77-5.078-13.968-10.44-21.314-15.837
						c-16.758-12.315-34.271-24.869-49.203-34.855c-5.043-3.374-9.781-6.449-14.1-9.132h-0.018
						c-3.791-2.345-7.256-4.393-10.307-6.047c-1.852-1.012-3.546-1.875-5.067-2.592h-0.009c-1.934-0.896-3.587-1.546-4.928-1.916
						c-3.093-0.848-5.331,0.593-6.886,3.743c0.839,2.468,1.744,5.101,2.698,7.856c1.012,2.912,2.09,5.956,3.209,9.082
						c9.74,27.32,22.713,61.082,27.023,68.288c5.657,9.473-2.165,57.673-3.042,79.941c16.974,7.366,34.886,14.246,53.458,20.329
						c6.945-1.064,11.565-3.064,13.569-6.299c-0.788-9.437,2.658-18.123,8.243-25.831c1.588-2.188,3.349-4.295,5.241-6.327
						c0,0,0,0,0-0.008c3.651-3.924,7.773-7.536,12.026-10.793c16.643-12.767,35.234-20.229,35.234-20.229
						c-0.995-1.004-2.016-3.218-3.027-6.4C2211.876,784.201,2210.814,779.839,2209.763,774.722z"/>
					<path fill="#F1A34F" d="M2203.573,735.769c-31.368-13.335-109.213-88.808-110.335-89.891
						c0.895,0.313,26.002-10.894,86.827,44.471c7.042,6.41,16.966,19.381,19.251,25.002
						C2202.07,722.119,2203.004,730.535,2203.573,735.769z"/>
					<path fill="#FF753C" d="M2068.191,617.601c0,0,15.361,2.229,30.39,13.917c15.028,11.688,90.094,85.015,102.654,88.092
						c12.56,3.079,39.596,1.629,39.27,9.534c-0.327,7.905-6.338,46.643-14.353,53.655c-8.016,7.013-50.428,10.354-68.796-1.336
						c-18.366-11.688-109.536-121.559-103.859-145.27C2059.175,612.483,2068.191,617.601,2068.191,617.601z"/>
					<path fill="#F1A34F" d="M2103.507,601.39c-8.016-1.995-33.563,0-33.563,0s12.273-5.271,13.275-9.608
						c0.24-1.022,0.271-2.625,0.29-4.428c1.292,5.27,5.22,7.764,15.74,8.264C2109.769,596.12,2111.521,603.383,2103.507,601.39z"/>
				</g>
				<g>
					<path fill="#8F3B99" d="M2408.088,768.062h-94.542c-1.734,0-3.153,1.419-3.153,3.152c0,1.734,1.419,3.153,3.153,3.153h94.542
						c1.734,0,3.152-1.419,3.152-3.153C2411.24,769.481,2409.822,768.062,2408.088,768.062z"/>
					<path fill="#8F3B99" d="M2441.371,679.406L2441.371,679.406c-1.629-0.593-3.448,0.255-4.041,1.886l-32.317,88.846
						c-0.592,1.631,0.256,3.449,1.886,4.042c1.63,0.592,3.448-0.257,4.041-1.886l32.317-88.848
						C2443.85,681.817,2443.001,679.999,2441.371,679.406z"/>
				</g>
			</g>
		</g>
		<g>
			<path fill="#6F36BB" d="M1762.672,476.133h-337.985c-9.297,0-16.9,7.606-16.9,16.901v171.447c0,9.296,7.604,16.901,16.9,16.901
				h28.575l-13.797,58.27l86.613-58.27h236.594c9.295,0,16.901-7.605,16.901-16.901V493.034
				C1779.573,483.739,1771.967,476.133,1762.672,476.133z"/>
			<g>
				<path fill="#FFFFFF" d="M1743.317,552.532h-298.571c-4.067,0-7.395,3.328-7.395,7.395l0,0c0,4.066,3.327,7.393,7.395,7.393
					h298.571c4.065,0,7.394-3.327,7.394-7.393l0,0C1750.711,555.86,1747.383,552.532,1743.317,552.532z"/>
				<path fill="#FFFFFF" d="M1743.317,585.628h-298.571c-4.067,0-7.395,3.328-7.395,7.394c0,4.067,3.327,7.395,7.395,7.395h298.571
					c4.065,0,7.394-3.328,7.394-7.395C1750.711,588.956,1747.383,585.628,1743.317,585.628z"/>
				<path fill="#FFFFFF" d="M1743.317,618.725h-298.571c-4.067,0-7.395,3.327-7.395,7.394c0,4.066,3.327,7.394,7.395,7.394h298.571
					c4.065,0,7.394-3.328,7.394-7.394C1750.711,622.052,1747.383,618.725,1743.317,618.725z"/>
				<path fill="#FFFFFF" d="M1453.9,515.916h126.753c4.841,0,8.801-3.961,8.801-8.802c0-4.841-3.96-8.802-8.801-8.802H1453.9
					c-4.842,0-8.803,3.961-8.803,8.802C1445.098,511.955,1449.059,515.916,1453.9,515.916z"/>
				<path fill="#FFFFFF" d="M1613.311,515.916h76.271c3.826,0,6.957-3.13,6.957-6.957v-3.69c0-3.827-3.131-6.957-6.957-6.957
					h-76.271c-3.825,0-6.955,3.13-6.955,6.957v3.69C1606.355,512.785,1609.485,515.916,1613.311,515.916z"/>
			</g>
		</g>
		<g>
			<path fill="#6D36C1" d="M2450.604,260.856h-256.546c-7.055,0-12.827,5.772-12.827,12.828v130.135
				c0,7.056,5.772,12.828,12.827,12.828h21.691l-10.473,44.23l65.743-44.23h179.584c7.056,0,12.828-5.772,12.828-12.828V273.683
				C2463.433,266.628,2457.66,260.856,2450.604,260.856z"/>
			<g>
				<path fill="#FFFFFF" d="M2209.286,330.069h226.628c3.087,0,5.611-2.525,5.611-5.612c0-3.086-2.524-5.612-5.611-5.612h-226.628
					c-3.087,0-5.612,2.527-5.612,5.612C2203.674,327.544,2206.199,330.069,2209.286,330.069z"/>
				<path fill="#FFFFFF" d="M2435.914,343.966h-226.628c-3.087,0-5.612,2.525-5.612,5.612c0,3.087,2.525,5.612,5.612,5.612h226.628
					c3.087,0,5.611-2.525,5.611-5.612C2441.525,346.492,2439.001,343.966,2435.914,343.966z"/>
				<path fill="#FFFFFF" d="M2435.914,369.087h-226.628c-3.087,0-5.612,2.526-5.612,5.612l0,0c0,3.087,2.525,5.613,5.612,5.613
					h226.628c3.087,0,5.611-2.526,5.611-5.613l0,0C2441.525,371.614,2439.001,369.087,2435.914,369.087z"/>
				<path fill="#FFFFFF" d="M2216.234,291.051h96.21c3.675,0,6.682-3.006,6.682-6.681s-3.007-6.681-6.682-6.681h-96.21
					c-3.674,0-6.681,3.006-6.681,6.681S2212.561,291.051,2216.234,291.051z"/>
				<path fill="#FFFFFF" d="M2337.234,291.051h57.893c2.903,0,5.281-2.376,5.281-5.281v-2.8c0-2.905-2.378-5.281-5.281-5.281
					h-57.893c-2.904,0-5.28,2.376-5.28,5.281v2.8C2331.954,288.675,2334.33,291.051,2337.234,291.051z"/>
			</g>
		</g>
		<g>
			<path fill="#00DBEF" d="M1188.019,350.623c-42.741,75.293-157.306,123.696-244.599,152.158
				c-120.062,39.613-302.059,60.912-369.667-44.284c-48.759-75.947,67.194-205.07,216.662-295.907l0.023-0.008
				c53.624-32.616,113.868-61.624,173.828-80.719C1137.467,26.761,1266.533,212.285,1188.019,350.623z"/>
			<g>
				<path fill="#6F36BB" d="M551.939,103.332h277.207c7.624,0,13.861,6.238,13.861,13.861V257.81
					c0,7.625-6.237,13.861-13.861,13.861h-23.438l11.316,47.793l-71.039-47.793H551.939c-7.625,0-13.861-6.237-13.861-13.861
					V117.193C538.078,109.57,544.315,103.332,551.939,103.332z"/>
				<g>
					<path fill="#FFBB78" d="M567.813,178.121h244.881c3.335,0,6.064-2.729,6.064-6.064c0-3.335-2.729-6.065-6.064-6.065H567.813
						c-3.335,0-6.064,2.729-6.064,6.065C561.748,175.393,564.478,178.121,567.813,178.121z"/>
					<path fill="#FFBB78" d="M812.693,193.137H567.813c-3.335,0-6.064,2.729-6.064,6.064c0,3.335,2.729,6.065,6.064,6.065h244.881
						c3.335,0,6.064-2.73,6.064-6.065C818.757,195.866,816.029,193.137,812.693,193.137z"/>
					<path fill="#FFBB78" d="M812.693,220.282H567.813c-3.335,0-6.064,2.729-6.064,6.065l0,0c0,3.335,2.729,6.064,6.064,6.064
						h244.881c3.335,0,6.064-2.73,6.064-6.064l0,0C818.757,223.011,816.029,220.282,812.693,220.282z"/>
					<path fill="#FFBB78" d="M701.226,135.96h103.959c3.971,0,7.219-3.249,7.219-7.22c0-3.97-3.248-7.219-7.219-7.219H701.226
						c-3.971,0-7.219,3.249-7.219,7.219C694.007,132.711,697.255,135.96,701.226,135.96z"/>
					<path fill="#FFBB78" d="M611.885,135.96h62.555c3.137,0,5.706-2.568,5.706-5.706v-3.027c0-3.138-2.569-5.706-5.706-5.706
						h-62.555c-3.138,0-5.706,2.568-5.706,5.706v3.027C606.179,133.392,608.747,135.96,611.885,135.96z"/>
				</g>
			</g>
			<g>
				<g>
					<g>
						<path fill="#462160" d="M1032.268,153.296c-10.28-6.291-26.697,1.228-26.697,1.228c5.676-7.979,26.39-5.371,26.39-5.371
							c-41.258-8.778-49.871,17.6-50.582,20.069c-29.927-27.007-77.843,30.564-77.843,30.564l68.758,91.141
							c0,0,6.272-14.5,14.558-9.973c12.919,7.057,37.904-21.501,29.919-59.073c-0.862-4.062-1.9-7.766-3.052-11.175
							c2.685,1.176,5.73,2.122,8.577,2.122c7.518,0,18.872-19.179,20.407-25.624
							C1044.235,180.761,1042.547,159.587,1032.268,153.296z"/>
						<path fill="#FFB27D" d="M1038.466,466.357c3.128-50.123-21.191-104.398-41.056-119.947c-3.126-2.459-6.154-4.039-8.967-4.615
							c-0.584-0.156-1.201-0.493-1.852-1.011c-5.595-4.501-13.129-22.425-14.348-49.917c-0.123-2.724-0.18-5.529-0.172-8.433
							c0,0,0.009,0,0-0.009l-2.756,0.543l-2.633,0.518h-0.008l-43.699,8.655c0.248,3.133,1.086,17.727,1.086,28.324
							c0.032,11.451-0.658,22.302-3.258,23.668c-0.072,0.006-0.721,0.059-1.4,0.127c-1.543,0.153-3.819,0.396-3.977,0.425
							c0,0-16.867,23.46-29.265,53.858c0,0.007,0,0.024,0,0.033l-0.009,0.008c-6.31,15.491-11.435,32.766-12.537,49.615
							c-0.684,10.463,0.281,19.685,1.941,28.643v0.009c2.459,13.229,6.608,27.11,9.07,42.424
							c20.623-4.814,40.434-10.439,58.791-16.495C973.236,493.058,1006.234,481.008,1038.466,466.357z"/>
						<path fill="#E8945B" d="M922.975,292.141c0,0,1.054,14.583,1.086,28.321c25.931-0.73,39.637-24.386,45.253-37.497
							L922.975,292.141z"/>
						<path fill="#462160" d="M974.1,277.921c0,0,13.589-21.471,16.851-39.831c2.328-13.108-4.347-61.694-53.172-54.697
							c0,0-14.182,1.397-27.51,10.4c-10.601,7.159-25.9,22.616-8.794,65.014l4.443,14.322L974.1,277.921z"/>
						<path fill="#FFB27D" d="M914.315,305.149c0,0,61.352,1.013,61.393-37.204c0.043-38.217,7.989-63.824-31.18-66.086
							c-39.171-2.262-46.797,12.312-49.914,25.064C891.497,239.676,898.357,303.901,914.315,305.149z"/>
						<path fill="#462160" d="M916.585,200.924c0,0,16.8,44.835,42.578,51.463c25.779,6.629,36.962-0.277,36.962-0.277
							s-19.773-15.708-23.878-43.129C972.247,208.981,929.256,179.583,916.585,200.924z"/>
						<path fill="#462160" d="M920.748,204.563c0,0-12.545,10.01-15.603,19.742c-3.06,9.732-4.435,29.766-10.274,29.084
							c0,0-12.655-30.473,1.568-47.713C911.521,187.395,920.748,204.563,920.748,204.563z"/>
						<path fill="#FFB27D" d="M1067.779,451.323c-10.209,5.102-20.237,9.889-30.076,14.396c-5.734,2.633-11.401,5.167-16.996,7.602
							c-0.732,0.321-1.464,0.633-2.188,0.946c-7.156-25.814-13.171-47.007-13.171-47.007l-4.532-19.636l-9.139-39.586v-0.008
							l-6.327-27.385c0,0,0.436,0.042,1.242,0.14c2.016,0.23,6.343,0.757,11.756,1.612c9.855,1.571,23.347,4.236,33.193,8.202
							c0.074,0.033,0.149,0.058,0.223,0.098c0.181,0.066,0.354,0.14,0.526,0.214c4.978,2.082,8.934,4.508,10.884,7.305
							c0.008,0.009,0.016,0.017,0.024,0.026c0,0.007,0.009,0.017,0.017,0.024c0.008,0,0.008,0.008,0.008,0.016
							c0.272,0.403,0.511,0.814,0.701,1.234C1052.23,377.778,1060.531,414.214,1067.779,451.323z"/>
						<path fill="#462160" d="M918.419,206.078c0,0,11.967,46.951,44.495,61.988c0,0-32.528-28.846-35.29-59.84
							C924.862,177.232,918.419,206.078,918.419,206.078z"/>
						<path fill="#FFB27D" d="M834.287,447.556c-0.906,4.064-1.762,8.292-2.56,12.702c-2.106,11.583-3.809,24.383-4.985,38.483
							c0,0-51.466-32.133-62.901-48.866c0-1.382,0.849-16.412-0.599-26.637c-0.535-3.759-1.382-6.869-2.691-8.415
							c-0.625-0.732-1.324-1.505-2.089-2.304c-0.008-0.008,0-0.008,0-0.008c-2.493-2.574-5.594-5.331-8.457-7.486
							c-3.003-2.262-5.734-3.865-7.224-3.898c-0.074-0.009-0.139-0.009-0.205,0c-0.099,0.007-0.206,0.033-0.32,0.074
							c-3.555,1.185-14.948,16.848-11.378,28.933c3.677,12.479,19.226,29.361,19.226,29.361s26.116,45.266,57.429,72.962
							c18.784-1.98,37.524-4.915,55.812-8.567c4.708-12.806,8.982-30.064,12.212-47.036v-0.009
							c4.994-26.233,8.391-54.978,10.596-78.259l0.009-0.008v-0.042c1.16-12.265,1.999-23.008,2.559-31.07
							c0.46-6.548,0.741-11.32,0.863-13.689c0.074-1.102,0.099-1.678,0.099-1.678s-0.799,0.313-2.213,1.118
							C879.194,357.886,849.596,378.947,834.287,447.556z"/>
						<path fill="#8F3B99" d="M943.42,502.78c40.186-13.102,86.146-30.435,128.223-52.667
							c-8.143-35.165-18.544-73.388-27.548-90.533c-0.229-0.444-0.525-0.88-0.872-1.299c0-0.008,0-0.016-0.008-0.016
							c-0.008-0.007-0.017-0.017-0.017-0.024c-0.009-0.009-0.017-0.017-0.024-0.026c-0.698-0.863-1.621-1.686-2.723-2.475
							c0.09-0.116,0.14-0.182,0.14-0.182c-2.542-1.851-5.569-3.463-8.827-4.862c-0.073-0.04-0.148-0.065-0.223-0.098
							c-14.462-6.179-33.185-8.227-33.185-8.227s0,0.007-0.008,0.024c-0.051,0.222-0.387,1.711-0.938,4.014
							c-1.177,4.928-3.332,13.582-5.733,21.619v0.008c-2.519,8.392-5.315,16.108-7.577,18.172
							c-5.528,5.06-85.623,13.344-87.465,4.147c-1.76-8.794,21.082-43.078,22.769-46.097c-6.649,0.617-18.988,2.408-24.118,3.278
							c-9.099,1.563-14.66,5.455-15.186,6.056c-10.776,8.168-36.123,33.243-46.026,93.667c0,0,0.074,0.107,0.214,0.296
							c1.76,2.295,13.68,17.275,29.968,21.948c0.461,0.14,0.929,0.255,1.399,0.371c-0.882,14.694-3.59,35.657-6.158,54.766
							C889.154,518.9,917.709,511.263,943.42,502.78z"/>
						<g>
							<path fill="#F1A34F" d="M786.209,416.353l-28.399,8.511c-0.943,0.283-1.937-0.252-2.218-1.194l-16.231-54.152
								c-0.282-0.942,0.253-1.935,1.196-2.217l28.399-8.512c0.942-0.283,1.934,0.252,2.218,1.195l16.23,54.153
								C787.686,415.077,787.151,416.069,786.209,416.353z"/>
							<path fill="#D86713" d="M778.83,418.565l-25.759,7.72c-1.671,0.501-3.433-0.447-3.934-2.118l-15.439-51.512
								c-0.502-1.672,0.448-3.433,2.119-3.934l25.76-7.721c1.671-0.501,3.432,0.448,3.933,2.119l15.439,51.512
								C781.451,416.302,780.5,418.064,778.83,418.565z"/>
						</g>
						<path fill="#522B73" d="M1018.193,475.204c-2.69-7.08-5.836-13.059-7.917-12.577c-1.961,0.452-8.482,9.54-14.214,21.484
							C1003.405,481.273,1010.798,478.304,1018.193,475.204z"/>
						<path fill="#FFB27D" d="M740.125,402.98c0,0,8.963-8.131,16.283-0.441c7.32,7.689-2.771,21.43-10.155,24.702
							c-7.383,3.275-9.837,5.127-9.837,5.127L740.125,402.98z"/>
					</g>
				</g>
				<path fill="#FFFFFF" d="M926.301,282.464c0,0-1.06,4.503-12.266,3.809c0,0-9.405-0.58-9.117-5.531
					C904.918,280.742,914.039,277.22,926.301,282.464z"/>
			</g>
		</g>
		<g>
			<polygon fill="#CA5F00" points="1870.118,258.031 1964.71,288.956 1908.048,233.731 1902.296,247.224 1877.947,247.342 			"/>
			<polygon fill="#F1A34F" points="1964.71,288.956 1891.296,233.108 1812.86,215.193 			"/>
			<polygon fill="#F1A34F" points="1908.048,233.731 1964.71,288.956 1926.941,211.589 			"/>
		</g>
		<g>
			<polygon fill="#CA5F00" points="511.199,588.339 416.608,619.264 473.27,564.039 479.022,577.532 503.369,577.65 			"/>
			<polygon fill="#F1A34F" points="416.608,619.264 490.021,563.417 568.456,545.502 			"/>
			<polygon fill="#F1A34F" points="473.27,564.039 416.608,619.264 454.376,541.897 			"/>
		</g>
		<path fill="#2E3552" d="M2499.6,1421.738H0.465c-0.255,0-0.465-0.21-0.465-0.465v-7.992c0-0.255,0.209-0.465,0.465-0.465H2499.6
			c0.256,0,0.465,0.21,0.465,0.465v7.992C2500.064,1421.529,2499.855,1421.738,2499.6,1421.738z"/>
	</g>
</g>
</svg>
