<!-- Generator: Adobe Illustrator 17.0.0, SVG Export Plug-In  -->
<svg version="1.1"
	 xmlns="http://www.w3.org/2000/svg" xmlnsXlink="http://www.w3.org/1999/xlink" xmlnsa="http://ns.adobe.com/AdobeSVGViewerExtensions/3.0/"
	 x="0px" y="0px" width="359.307px" height="390.616px" viewBox="0 0 359.307 390.616" enable-background="new 0 0 359.307 390.616"
	 xml:space="preserve">
<defs>
</defs>
<g>
	<g>
		<path opacity="0.38" fill="#E2E7FF" d="M174.586,1.792C274.643,7.172,278.946,114.76,268.188,156.72
			c-10.759,41.959,71.008,51.642,80.691,120.499c9.683,68.857-53.794,97.906-98.981,98.981
			c-45.187,1.076-80.691-25.821-88.222-59.174c-7.531-33.352-29.049-49.491-66.705-55.946
			C57.314,254.625-10.466,204.058,1.368,138.43c0,0,2.771-69.832,68.32-116.195C113.8-8.966,174.586,1.792,174.586,1.792z"/>
		<g>
			<g>
				<g>
					<path fill="#61A27D" d="M109.862,166.666c0,0-2.726-34.76,7.497-57.934c4.09-5.452,6.816-3.408,6.816-3.408
						s1.363,14.313-2.045,27.944c-3.408,13.632-5.453,40.213-5.453,40.213L109.862,166.666z"/>
					<path fill="#578B71" d="M107.818,163.939c0,0-0.682-16.358-17.721-30.671c-17.039-14.313-20.447-14.313-20.447-14.313
						s13.631-0.682,23.173,5.453c9.542,6.134,12.95,23.173,13.632,25.9c0.681,2.726,4.771,13.632,4.771,13.632H107.818z"/>
					<path fill="#578B71" d="M118.871,166.446c0,0,3.193-16.057,22.234-27.575c19.041-11.517,22.408-10.992,22.408-10.992
						s-13.364-2.773-23.737,1.817c-10.373,4.591-16.365,20.902-17.459,23.49c-1.093,2.589-6.814,12.734-6.814,12.734
						L118.871,166.446z"/>
					<path fill="#7CC97D" d="M111.226,163.939c0,0-17.721-58.615-33.397-72.247c0.681-2.045,19.084,4.089,24.536,19.084
						c5.453,14.994,6.816,37.486,8.861,43.621c2.045,6.134,4.771,11.587,4.771,11.587"/>
					<path fill="#7CC97D" d="M109.862,166.666c0,0,6.816-32.034,24.537-42.939c1.363,4.089-18.402,37.486-16.358,52.481
						C120.086,191.202,109.862,166.666,109.862,166.666z"/>
				</g>
				<path fill="#A9A7E7" d="M100.131,202.771h26.211c1.613-10.932,2.968-20.762,3.219-24.518c0.516-7.745-2.094-14.308-3.391-17.039
					h-25.867c-1.297,2.731-3.907,9.294-3.391,17.039C97.163,182.009,98.518,191.839,100.131,202.771z"/>
			</g>
			<g>
				<rect x="290.736" y="137.496" fill="#24ADB2" width="48.071" height="65.037"/>
				<rect x="285.788" y="137.496" fill="#26C6DA" width="48.071" height="65.037"/>
			</g>
			<g>
				<rect x="273.77" y="130.898" fill="#E1543C" width="48.071" height="71.635"/>
				<rect x="261.752" y="130.898" fill="#FF634D" width="55.14" height="71.635"/>
				<rect x="307.467" y="130.898" fill="#EB594D" width="9.426" height="71.635"/>
			</g>
			<path fill="#202F7C" d="M41.664,148.807c0,0-7.541,3.77-10.839,14.61c-3.299,10.839,14.61,40.059,14.61,38.645
				c0-1.414,17.909-9.426,17.909-9.426l-8.954-32.99L41.664,148.807z"/>
			<g>
				<polyline fill="#4F57A0" points="230.011,206.013 220.054,179.699 195.162,179.699 205.119,206.013 				"/>
				<g>
					<polyline fill="#E2E7FF" points="139.689,184.914 281.217,184.914 283.692,171.639 142.164,171.639 					"/>
					<path fill="#243FA7" d="M154.689,104.458l-12.525,67.181h141.528l12.235-65.626c0.487-2.609-1.516-5.019-4.17-5.019H158.859
						C156.816,100.994,155.064,102.45,154.689,104.458z"/>
				</g>
			</g>
			<polygon fill="#FFFFFF" points="224.403,196.524 261.87,168.601 225.11,166.48 190.471,193.343 			"/>
			<path fill="#FF8D68" d="M213.917,187.452l9.426-5.184c0,0,9.102-3.77,9.367-3.77c0.265,0,1.06,0.884,0.088,2.739
				s-3.535,2.298-3.535,2.298l-1.679,4.683l8.719-1.237l2.003-0.471c0,0-1.414,3.535-2.003,4.359
				c-0.589,0.825-3.888,2.946-3.888,2.946s-6.244,5.184-8.483,5.773s-10.015,0.943-10.015,0.943l-4.948-0.118l-4.595,0.943
				c0,0-2.356-4.359-2.003-10.486L213.917,187.452z"/>
			<g>
				<g>
					<polygon fill="#E2E7FF" points="269.764,209.131 297.098,387.275 303.696,387.275 285.788,208.188 					"/>
					<polygon fill="#E2E7FF" points="325.375,209.131 352.71,387.275 359.307,387.275 341.399,208.188 					"/>
				</g>
				<g>
					<polygon fill="#C2D3EB" points="165.14,209.131 137.806,387.275 131.208,387.275 149.116,208.188 					"/>
					<polygon fill="#C2D3EB" points="109.529,209.131 82.195,387.275 75.597,387.275 93.505,208.188 					"/>
				</g>
				<rect x="99.161" y="207.246" fill="#A9A7E7" width="246.008" height="8.483"/>
			</g>
			<path fill="#FFC757" d="M349.882,211.016H106.701c-2.603,0-4.713-2.11-4.713-4.713l0,0c0-2.603,2.11-4.713,4.713-4.713h243.181
				c2.603,0,4.713,2.11,4.713,4.713l0,0C354.595,208.906,352.485,211.016,349.882,211.016z"/>
			<g>
				<path fill="#201360" d="M114.847,369.367c0,0,1.546-3.785,8.009-3.112c6.463,0.673,7.263,1.871,8.16,5.042
					c0.897,3.171,3.286,6.517,4.802,7.184c1.516,0.668,7.125,4.103,11.602,4.626c4.477,0.523,5.103,3.213,4.176,4.495
					c-0.927,1.282-17.655,3.089-21.38,2.776c0,0-12.594,0.368-15.603-0.474C111.605,389.063,114.661,370.613,114.847,369.367z"/>
				<path fill="#FF8D68" d="M116.56,342.229l-1.94,29.541c0,0,4.605,1.483,8.11,4.051c5.179,3.795,9.42-0.8,9.42-0.8l1.168-18.587
					L116.56,342.229z"/>
				<path fill="#202F7C" d="M154.065,290.191l-19.087,82.003c0,0-9.897,1.414-21.914-4.241c0,0,10.604-77.054,11.311-82.003
					C125.081,281.001,152.651,285.95,154.065,290.191z"/>
				<g>
					<path fill="#FF8D68" d="M76.693,78.036c0,0,7.836,1.46,12.986,13c5.15,11.54,3.911,36.873,1.198,40.024
						c-2.713,3.151-11.627,2.608-24.152-0.624c-13.234-3.414-18.504-16.587-21.408-25.313C39.755,88.412,53.38,69.93,76.693,78.036z
						"/>
					<path fill="#FF8D68" d="M54.94,145.577l4.507-21.589c0,0,11.601-4.236,19.519,3.159l2.694,3.287l0.917,13.802
						C82.576,144.237,70.417,147.52,54.94,145.577z"/>
					<path fill="#201360" d="M54.688,278.344c0,0,25.255,7.389,55.21,6.37c29.955-1.02,33.919-9.513,34.853-17.611
						c0.934-8.098-22.367-13.024-32.503-15.685c-10.136-2.661-44.791-12.627-54.163-2.519S46.534,271.436,54.688,278.344z"/>
					<path fill="#201360" d="M184.832,369.367c0,0,1.546-3.785,8.009-3.112c6.463,0.673,7.263,1.871,8.16,5.042
						c0.897,3.171,3.286,6.517,4.803,7.184c1.516,0.668,7.125,4.103,11.602,4.626c4.477,0.523,5.103,3.213,4.176,4.495
						c-0.927,1.282-17.655,3.089-21.38,2.776c0,0-12.594,0.368-15.603-0.474C181.591,389.063,184.646,370.613,184.832,369.367z"/>
				</g>
				<path fill="#FF8D68" d="M177.393,344.388l7.069,28.748c0,0,5.655-1.414,8.954,1.414c3.299,2.828,9.426,0.943,9.426,0.943
					l-5.184-22.622L177.393,344.388z"/>
				<path fill="#202F7C" d="M118.954,248.247c1.414,0,49.484,16.024,58.91,23.093c9.426,7.54,24.506,91.546,25.449,93.431
					c0.943,1.885-13.667,7.069-23.093,5.655c-0.471-1.885-22.622-72.695-22.622-77.408c0,0-37.702-1.885-53.726-4.713
					c-16.023-2.828-26.863-3.299-33.461-20.736s32.047-18.851,32.047-18.851L118.954,248.247z"/>
				<path fill="#E2E7FF" d="M201.193,186.274c0,0,9.19-0.236,9.897,0.707c0.707,0.943,4.006,9.426,0.943,12.96
					c-2.592,1.885-2.592,1.885-2.592,1.885h-8.012L201.193,186.274z"/>
				<path fill="#E2E7FF" d="M53.329,142.445l2.474-6.362c0,0,14.845-4.595,27.57,1.06c3.181,3.181,4.949,8.13,4.949,8.13
					L53.329,142.445z"/>
				<path fill="#202F7C" d="M50.148,143.152c0,0,1.885-3.299,5.184-3.77c3.299-0.471,18.38-2.356,28.277,0.471
					c3.77,1.414,5.655,3.299,5.655,3.299s14.138,4.713,18.851,7.54c4.713,2.828,6.127,24.507,7.069,31.576
					c0.942,7.069-1.885,14.61-1.885,14.61s11.311,46.186,11.311,52.783s-3.77,14.138-16.966,18.851
					c-13.196,4.713-49.013,2.828-61.267-4.713c-3.77-7.54-9.426-97.084-10.368-105.567C35.067,149.75,50.148,143.152,50.148,143.152
					z"/>
				<path fill="#202F7C" d="M100.339,148.807c0,0,3.535-2.121,12.018,3.535c8.483,5.655,31.811,26.863,34.639,28.277
					c2.828,1.414,57.261,4.242,57.261,4.242s7.776,9.897-0.707,17.673c0,0-52.548,2.121-62.445,1.414
					c-9.897-0.707-42.887-19.794-42.887-19.794S84.787,164.359,100.339,148.807z"/>
			</g>
			<g>
				<path fill="none" stroke="#1B2048" stroke-width="0.8263" stroke-miterlimit="10" d="M89.009,180
					c0,0,44.07,23.137,49.212,23.871c5.142,0.734,24.606,0,24.606,0"/>
				<path fill="none" stroke="#1B2048" stroke-width="0.8263" stroke-miterlimit="10" d="M148.504,185.876
					c0,0,1.469,8.08-3.673,12.854"/>
				<path fill="none" stroke="#1B2048" stroke-width="0.8263" stroke-miterlimit="10" d="M151.809,183.672
					c0,0,4.407,6.978,2.203,12.119"/>
				<path fill="none" stroke="#1B2048" stroke-width="0.8263" stroke-miterlimit="10" d="M88.642,170.818
					c0,0-3.673-12.854,9.181-21.301"/>
				<path fill="none" stroke="#1B2048" stroke-width="0.8263" stroke-miterlimit="10" d="M41.266,158.699
					c0,0-2.571,22.77-2.571,33.42"/>
				<path fill="none" stroke="#1B2048" stroke-width="0.8263" stroke-miterlimit="10" d="M54.487,143.641c0,0,16.894-1.469,30.849,0
					"/>
				<path fill="none" stroke="#1B2048" stroke-width="0.8263" stroke-miterlimit="10" d="M165.031,291.644
					c0,0,8.08-2.571,11.018-15.057"/>
				<path fill="none" stroke="#1B2048" stroke-width="0.8263" stroke-miterlimit="10" d="M170.539,292.746
					c0,0,4.774-1.469,6.978-8.08"/>
				
					<line fill="none" stroke="#1B2048" stroke-width="0.8263" stroke-miterlimit="10" x1="141.159" y1="307.069" x2="129.04" y2="367.666"/>
			</g>
			<path fill="#201360" d="M87.968,93.314c0,0,1.414,6.362-4.242,10.604l0.353,7.069c0,0,2.121,6.362,0.707,7.069
				c-1.414,0.707-1.767-0.354-1.767-0.354s-4.595-7.423-6.009-7.776c-1.414-0.354,3.181,9.897,3.181,9.897s-4.595,7.069-13.078,8.13
				l1.767-2.474c0,0-3.888,2.474-9.897,2.121c-6.009-0.354-10.604-9.543-10.604-9.543s1.06,2.474,0,3.535
				c-1.06,1.06-7.069-8.13-7.423-19.794l-1.767,3.535c0,0,0.353-8.13,3.535-17.32c3.181-9.19,17.319-15.906,25.096-15.906
				c7.776,0,15.552,0.707,17.673,0c2.121-0.707,1.06,5.302,1.06,5.302s1.06-2.474,1.414-4.595c1.414-1.06,3.535,7.423,2.828,10.604
				c-0.707,3.181-0.707,3.181-0.707,3.181s2.474-3.181,2.828-4.949C94.33,81.296,93.977,89.072,87.968,93.314z"/>
			<path fill="#FF634D" d="M82.839,110.924c0,0-1.428-4.732-5.348-2.244c-3.919,2.488,1.648,13.63,4.926,12.669
				C85.696,120.388,83.701,112.723,82.839,110.924z"/>
			<polyline fill="none" stroke="#E66657" stroke-width="1.2805" stroke-miterlimit="10" points="226.289,192.872 236.303,190.869 
				238.306,186.509 			"/>
			<path fill="none" stroke="#E66657" stroke-width="1.2805" stroke-miterlimit="10" d="M235.95,191.104
				c0,0-5.066,4.242-5.773,4.595c-0.707,0.354-3.888,1.178-3.888,1.178"/>
			<path fill="none" stroke="#E66657" stroke-width="1.2805" stroke-miterlimit="10" d="M81.252,122.887
				c0,0-1.414,4.948,7.069,7.776"/>
			<polygon fill="#2E60BE" points="274.477,160.118 199.072,160.118 208.498,111.105 283.903,111.105 			"/>
			<g>
				<path fill="#26C6F8" d="M174.843,128.072c-0.27,1.405,0.806,2.708,2.237,2.708h82.09c1.092,0,2.031-0.775,2.237-1.848
					l1.208-6.282h-86.73L174.843,128.072z"/>
				<path fill="#CAE5FF" d="M269.135,74.405h-82.09c-1.092,0-2.031,0.775-2.237,1.848l-8.923,46.397h86.73l8.757-45.536
					C271.642,75.709,270.566,74.405,269.135,74.405z"/>
			</g>
			<g>
				<path fill="#387AB6" d="M213.011,130.815c1.081-2.981,1.748-5.112,1.748-5.112s2.476-12.942-8.553-9.622
					c0,0-3.826,2.87-5.627,8.947c-0.559,1.887-1.226,3.903-1.881,5.787H213.011z"/>
				<path fill="#DCE4FF" d="M235.854,130.815c-0.203-6.381-0.599-11.498-1.288-12.877c-2.026-3.714-10.297-7.09-10.297-7.09
					l-11.31,1.688c0,0-4.727,1.35-6.246,4.727c-0.51,1.134-1.745,6.655-3.064,13.553H235.854z"/>
				<path fill="#FF8D68" d="M214.89,103.19c0,0-0.684,5.059-2.188,8.751c0,0-0.41,2.871,5.606,1.641
					c6.016-1.231,5.196-4.239,5.196-4.239V97.447L214.89,103.19z"/>
				<g>
					<g>
						<path fill="#FF8D68" d="M206.444,90.682c0,0,0.068,11.311,3.314,16.76c2.216,2.292,9.771-1.308,12.95-6.171
							c3.18-4.863,3.117-12.179,0.601-16.252c-2.515-4.073-10.801-2.848-13.229-1.442C207.652,84.984,206.306,88.873,206.444,90.682
							z"/>
					</g>
					<path fill="#FBA894" d="M221.708,97.071c0,0,2.133-3.287,3.56-1.33c1.427,1.957-3.515,5.96-3.893,4.437
						C220.998,98.655,221.708,97.071,221.708,97.071z"/>
				</g>
				<path fill="#713336" d="M206.444,90.682c0,0-3.968-3.489,0.818-8.001c2.735-2.051,4.102-0.547,6.973-1.094
					c2.871-0.547,8.067,0,9.981,3.008c1.914,3.008,1.23,9.981,0.684,10.665c-0.547,0.684-2.188,1.094-2.188,2.324
					c0,1.231-0.273,2.188-0.684,2.188c-0.41,0-0.41-2.051-0.41-3.555c0-1.504-0.273-4.375-0.957-6.426
					c-0.684-2.051-3.828-1.914-5.059-1.641C214.371,88.423,213.556,91.573,206.444,90.682z"/>
				<g>
					<path opacity="0.53" fill="#505E83" d="M221.343,94.08c0,0,0.089-0.045,0.226-0.102c-0.001-0.004-0.001-0.011-0.001-0.011
						L221.343,94.08z"/>
					<path fill="#713336" d="M221.569,93.978c0.025,0.224,0.741,6.773-1.858,8.598c-2.701,1.801-2.814-0.506-4.952-0.844
						c-2.138-0.338-3.883-0.225-4.839,1.182c-0.844,1.407-0.675,2.026-1.463,1.632c-0.169,0.45,1.013,3.207,2.814,3.939
						c1.801,0.731,6.077-1.519,7.99-3.207c1.913-1.688,3.095-2.757,3.433-4.22c0.338-1.463,0.169-4.277,0.563-6.246
						C223.481,93.324,222.121,93.749,221.569,93.978z M211.721,106.065c-2.588-0.563-2.251-2.588,0.394-3.432
						c0,0,2.813-1.294,3.77,0.675C216.278,104.602,214.309,106.628,211.721,106.065z"/>
				</g>
				<path fill="#FFFFFF" d="M223.509,108.485c0,0-3.292,4.136-8.694,4.642c-1.097-0.422-1.688-2.448-1.688-2.448l-0.844,1.266
					c0,0-0.422,2.532,0,3.545c0.506,0.084,2.363-1.182,2.363-1.182s1.266,1.772,2.195,2.11s6.837-3.629,7.428-5.571
					C224.269,110.848,224.226,109.455,223.509,108.485z"/>
				<path fill="#387AB6" d="M236.716,130.815c-0.294-6.289-0.67-11.097-1.024-12.09c-1.35-3.151-6.415-7.202-11.423-7.878
					c0,0-1.881,8.683-3.732,19.967H236.716z"/>
				<path fill="#387AB6" d="M207.582,130.815c2.653-11.258,4.701-17.941,4.701-17.941c-1.519,0.169-4.22,1.35-6.077,3.207
					c-1.008,2.016-2.574,7.806-4.191,14.734H207.582z"/>
				<path fill="#387AB6" d="M235.703,130.815c0.184-6.022-0.153-11.59-1.137-12.877c-3.207-2.701-6.583-2.532-8.271,0.507
					c-0.923,1.661-2.148,7.456-3.069,12.371H235.703z"/>
				<path fill="none" stroke="#87B8EB" stroke-width="0.3595" stroke-miterlimit="10" d="M214.647,114.308
					c-0.957,3.899-1.75,7.842-2.467,11.792"/>
			</g>
			<g>
				<path fill="#6787FF" d="M283.656,72.116c-2.337,9.373-11.83,16.972-21.203,16.972c-9.373,0-15.077-7.598-12.74-16.972
					c2.337-9.373,11.83-16.972,21.203-16.972C280.289,55.144,285.993,62.743,283.656,72.116z"/>
				<path fill="#6787FF" d="M287.104,90.348c-0.64,2.565-3.238,4.645-5.803,4.645c-2.565,0-4.126-2.08-3.487-4.645
					c0.64-2.565,3.238-4.645,5.803-4.645S287.744,87.782,287.104,90.348z"/>
				<path fill="#FFFFFF" d="M262.308,80.741c-0.534,0-1.017-0.204-1.323-0.611l-4.386-5.843c-0.612-0.815-0.283-2.136,0.736-2.951
					c1.018-0.815,2.339-0.815,2.951,0l3.279,4.367l11.713-9.375c1.018-0.815,2.339-0.815,2.951,0
					c0.612,0.815,0.283,2.136-0.736,2.951l-13.556,10.851C263.427,80.537,262.842,80.741,262.308,80.741z"/>
			</g>
			<g>
				<g>
					<path fill="#BFD9FF" d="M141.977,43.825h-5.551c-1.394,0-2.242-1.13-1.894-2.523l1.384-5.551
						c0.348-1.394,1.759-2.523,3.152-2.523h5.551c1.394,0,2.242,1.13,1.894,2.523l-1.384,5.551
						C144.782,42.696,143.371,43.825,141.977,43.825z"/>
				</g>
				<g>
					<path fill="none" stroke="#A9A7E7" stroke-width="0.75" stroke-miterlimit="10" d="M137.919,60.1h-5.551
						c-1.393,0-2.242-1.13-1.894-2.523l1.384-5.551c0.348-1.393,1.759-2.523,3.152-2.523h5.551c1.393,0,2.242,1.13,1.894,2.523
						l-1.384,5.551C140.724,58.97,139.313,60.1,137.919,60.1z"/>
					<path fill="#26C6DA" d="M155.582,60.1h-5.551c-1.394,0-2.242-1.13-1.894-2.523l1.384-5.551
						c0.348-1.393,1.759-2.523,3.152-2.523h5.551c1.394,0,2.242,1.13,1.894,2.523l-1.384,5.551
						C158.387,58.97,156.975,60.1,155.582,60.1z"/>
					<path fill="#FFFFFF" d="M173.244,60.1h-5.551c-1.394,0-2.242-1.13-1.894-2.523l1.384-5.551
						c0.347-1.393,1.759-2.523,3.152-2.523h5.551c1.393,0,2.242,1.13,1.894,2.523l-1.384,5.551
						C176.049,58.97,174.637,60.1,173.244,60.1z"/>
				</g>
				<g>
					<path fill="#26C6DA" d="M133.767,76.753h-5.551c-1.394,0-2.242-1.13-1.894-2.523l1.384-5.551
						c0.348-1.394,1.759-2.523,3.152-2.523h5.551c1.394,0,2.242,1.13,1.894,2.523l-1.384,5.551
						C136.572,75.623,135.161,76.753,133.767,76.753z"/>
					<path fill="#FFFFFF" d="M129.332,94.541h-5.551c-1.394,0-2.242-1.13-1.894-2.523l1.384-5.551
						c0.347-1.393,1.759-2.523,3.152-2.523h5.551c1.393,0,2.242,1.13,1.894,2.523l-1.384,5.551
						C132.137,93.412,130.726,94.541,129.332,94.541z"/>
					<path fill="#EDF4FF" d="M151.43,76.753h-5.551c-1.394,0-2.242-1.13-1.894-2.523l1.384-5.551
						c0.347-1.394,1.759-2.523,3.152-2.523h5.551c1.393,0,2.242,1.13,1.894,2.523l-1.384,5.551
						C154.235,75.623,152.823,76.753,151.43,76.753z"/>
					<path fill="none" stroke="#A9A7E7" stroke-width="0.75" stroke-miterlimit="10" d="M143.692,107.788h-5.551
						c-1.394,0-2.242-1.13-1.894-2.523l1.384-5.551c0.347-1.394,1.759-2.523,3.152-2.523h5.551c1.394,0,2.242,1.13,1.894,2.523
						l-1.384,5.551C146.497,106.658,145.085,107.788,143.692,107.788z"/>
				</g>
			</g>
			<g>
				<g>
					<path fill="#CAE5FF" d="M310.685,86.224h-2.038c-0.512,0-0.823-0.415-0.695-0.926l0.508-2.038
						c0.128-0.512,0.646-0.926,1.157-0.926h2.038c0.512,0,0.823,0.415,0.695,0.926l-0.508,2.038
						C311.715,85.81,311.197,86.224,310.685,86.224z"/>
				</g>
				<g>
					<path fill="#CAE5FF" d="M309.196,92.199h-2.038c-0.512,0-0.823-0.415-0.695-0.926l0.508-2.038
						c0.128-0.511,0.646-0.926,1.157-0.926h2.038c0.512,0,0.823,0.415,0.695,0.926l-0.508,2.038
						C310.225,91.784,309.707,92.199,309.196,92.199z"/>
					<path fill="#CAE5FF" d="M315.68,92.199h-2.038c-0.512,0-0.823-0.415-0.695-0.926l0.508-2.038
						c0.128-0.511,0.646-0.926,1.157-0.926h2.038c0.512,0,0.823,0.415,0.695,0.926l-0.508,2.038
						C316.709,91.784,316.191,92.199,315.68,92.199z"/>
					<path fill="#CAE5FF" d="M322.164,92.199h-2.038c-0.512,0-0.823-0.415-0.695-0.926l0.508-2.038
						c0.127-0.511,0.646-0.926,1.157-0.926h2.038c0.512,0,0.823,0.415,0.695,0.926l-0.508,2.038
						C323.193,91.784,322.675,92.199,322.164,92.199z"/>
				</g>
				<g>
					<path fill="#CAE5FF" d="M307.672,98.312h-2.038c-0.512,0-0.823-0.415-0.695-0.926l0.508-2.038
						c0.128-0.512,0.646-0.926,1.157-0.926h2.038c0.512,0,0.823,0.415,0.695,0.926l-0.508,2.038
						C308.701,97.897,308.183,98.312,307.672,98.312z"/>
					<path fill="#CAE5FF" d="M306.043,104.842h-2.038c-0.512,0-0.823-0.415-0.695-0.926l0.508-2.038
						c0.128-0.512,0.646-0.926,1.157-0.926h2.038c0.512,0,0.823,0.415,0.695,0.926l-0.508,2.038
						C307.073,104.428,306.555,104.842,306.043,104.842z"/>
					<path fill="#CAE5FF" d="M314.155,98.312h-2.038c-0.512,0-0.823-0.415-0.695-0.926l0.508-2.038
						c0.128-0.512,0.646-0.926,1.157-0.926h2.038c0.512,0,0.823,0.415,0.695,0.926l-0.508,2.038
						C315.185,97.897,314.667,98.312,314.155,98.312z"/>
					<path fill="#CAE5FF" d="M311.315,109.705h-2.038c-0.511,0-0.823-0.415-0.695-0.926l0.508-2.038
						c0.128-0.511,0.646-0.926,1.157-0.926h2.038c0.512,0,0.823,0.415,0.695,0.926l-0.508,2.038
						C312.345,109.291,311.826,109.705,311.315,109.705z"/>
				</g>
			</g>
			<g>
				<path opacity="0.9" fill="#BFD9FF" d="M310.033,163.436h-66.998c-0.704,0-1.219-0.665-1.041-1.347l6.254-24.03
					c0.123-0.474,0.551-0.805,1.041-0.805h66.998c0.704,0,1.219,0.665,1.041,1.347l-6.254,24.03
					C310.95,163.105,310.522,163.436,310.033,163.436z"/>
				<g>
					
						<line fill="none" stroke="#A9C2FF" stroke-width="1.076" stroke-linecap="round" stroke-linejoin="round" stroke-miterlimit="10" x1="252.223" y1="142.394" x2="275.536" y2="142.394"/>
					
						<line fill="none" stroke="#A9C2FF" stroke-width="1.076" stroke-linecap="round" stroke-linejoin="round" stroke-miterlimit="10" x1="250.43" y1="153.154" x2="273.743" y2="153.154"/>
					
						<line fill="none" stroke="#A9C2FF" stroke-width="1.076" stroke-linecap="round" stroke-linejoin="round" stroke-miterlimit="10" x1="260.233" y1="149.089" x2="283.546" y2="149.089"/>
					
						<line fill="none" stroke="#A9C2FF" stroke-width="1.076" stroke-linecap="round" stroke-linejoin="round" stroke-miterlimit="10" x1="251.625" y1="145.981" x2="258.619" y2="145.981"/>
					
						<line fill="none" stroke="#A9C2FF" stroke-width="1.076" stroke-linecap="round" stroke-linejoin="round" stroke-miterlimit="10" x1="250.669" y1="149.089" x2="257.663" y2="149.089"/>
					
						<line fill="none" stroke="#A9C2FF" stroke-width="1.076" stroke-linecap="round" stroke-linejoin="round" stroke-miterlimit="10" x1="279.242" y1="142.394" x2="287.551" y2="142.394"/>
					<path fill="none" stroke="#84AEE5" stroke-width="0.3587" stroke-miterlimit="10" d="M283.314,158.202h-12.408
						c-0.063,0-0.108-0.059-0.092-0.12l0.555-2.133c0.011-0.042,0.049-0.072,0.092-0.072h12.408c0.063,0,0.108,0.059,0.092,0.12
						l-0.555,2.134C283.395,158.173,283.357,158.202,283.314,158.202z"/>
					<path fill="none" stroke="#84AEE5" stroke-width="0.3587" stroke-miterlimit="10" d="M267.891,158.202h-12.408
						c-0.063,0-0.108-0.059-0.092-0.12l0.555-2.133c0.011-0.042,0.049-0.072,0.092-0.072h12.408c0.063,0,0.108,0.059,0.092,0.12
						l-0.555,2.134C267.973,158.173,267.935,158.202,267.891,158.202z"/>
				</g>
				<path fill="#387AB6" d="M305.121,155.109c-0.636-0.847-3.216-1.463-3.929-2.31c-0.364-0.433-0.364-1.237-0.277-1.92
					c0.254-0.162,0.465-0.324,0.59-0.475c0.214-0.313,0.456-0.75,0.698-1.23c0.073,0.072,0.171,0.127,0.297,0.124
					c0.339-0.01,1.628-1.766,1.296-2.172c-0.19-0.233-0.497-0.031-0.725,0.185c0.341-0.782,0.581-1.381,0.581-1.381h-0.013
					c0.032-0.099,0.062-0.198,0.087-0.298c0.512-2.052-0.737-3.716-2.789-3.716c-2.052,0-4.13,1.664-4.642,3.716
					c-0.025,0.101-0.045,0.2-0.061,0.298h-0.013c0,0-0.059,0.599-0.107,1.381c-0.121-0.215-0.327-0.417-0.633-0.185
					c-0.535,0.407-0.121,2.162,0.213,2.172c0.124,0.004,0.25-0.052,0.358-0.124c0.003,0.48,0.026,0.917,0.084,1.23
					c0.062,0.184,0.242,0.386,0.475,0.583c-0.255,0.659-0.644,1.402-1.194,1.812c-1.135,0.847-4.023,1.463-5.081,2.31
					c-0.952,0.762-1.801,2.987-1.962,3.427h17.002C305.433,158.096,305.693,155.871,305.121,155.109z"/>
			</g>
			<g>
				<path fill="#FFFFFF" d="M219.189,154.866h-54.976c-4.826,0-7.763-3.913-6.56-8.739l0,0c1.203-4.826,6.091-8.739,10.918-8.739
					h54.976c4.826,0,7.763,3.913,6.56,8.739l0,0C228.903,150.953,224.015,154.866,219.189,154.866z"/>
				<g>
					<g>
						<path fill="#FFA402" d="M170.045,148.409l-2.357,1.096c-0.222,0.103-0.41-0.063-0.318-0.282l0.977-2.321
							c0.037-0.087,0.03-0.175-0.018-0.237l-1.276-1.644c-0.12-0.155,0.035-0.424,0.262-0.456l2.415-0.339
							c0.09-0.013,0.179-0.067,0.238-0.146l1.568-2.111c0.148-0.199,0.431-0.199,0.48,0l0.516,2.111
							c0.019,0.079,0.081,0.134,0.165,0.146l2.246,0.339c0.211,0.032,0.232,0.301,0.034,0.456l-2.096,1.644
							c-0.078,0.061-0.129,0.15-0.136,0.237l-0.181,2.321c-0.017,0.218-0.288,0.385-0.458,0.282l-1.811-1.096
							C170.226,148.368,170.133,148.368,170.045,148.409z"/>
					</g>
					<g>
						<path fill="#FFA402" d="M181.652,148.409l-2.357,1.096c-0.222,0.103-0.41-0.063-0.318-0.282l0.977-2.321
							c0.037-0.087,0.03-0.175-0.018-0.237l-1.276-1.644c-0.12-0.155,0.035-0.424,0.262-0.456l2.415-0.339
							c0.09-0.013,0.179-0.067,0.238-0.146l1.568-2.111c0.148-0.199,0.431-0.199,0.48,0l0.516,2.111
							c0.019,0.079,0.081,0.134,0.165,0.146l2.246,0.339c0.211,0.032,0.232,0.301,0.035,0.456l-2.096,1.644
							c-0.078,0.061-0.129,0.15-0.136,0.237l-0.18,2.321c-0.017,0.218-0.288,0.385-0.458,0.282l-1.811-1.096
							C181.833,148.368,181.74,148.368,181.652,148.409z"/>
					</g>
					<g>
						<path fill="#FFA402" d="M193.259,148.409l-2.357,1.096c-0.222,0.103-0.41-0.063-0.318-0.282l0.977-2.321
							c0.036-0.087,0.03-0.175-0.018-0.237l-1.276-1.644c-0.12-0.155,0.035-0.424,0.262-0.456l2.415-0.339
							c0.09-0.013,0.179-0.067,0.238-0.146l1.569-2.111c0.148-0.199,0.431-0.199,0.479,0l0.516,2.111
							c0.019,0.079,0.081,0.134,0.165,0.146l2.246,0.339c0.211,0.032,0.232,0.301,0.035,0.456l-2.096,1.644
							c-0.078,0.061-0.129,0.15-0.136,0.237l-0.181,2.321c-0.017,0.218-0.288,0.385-0.458,0.282l-1.811-1.096
							C193.44,148.368,193.347,148.368,193.259,148.409z"/>
					</g>
					<g>
						<path fill="#FFA402" d="M204.866,148.409l-2.357,1.096c-0.222,0.103-0.41-0.063-0.318-0.282l0.977-2.321
							c0.037-0.087,0.03-0.175-0.018-0.237l-1.276-1.644c-0.12-0.155,0.035-0.424,0.262-0.456l2.414-0.339
							c0.09-0.013,0.179-0.067,0.238-0.146l1.569-2.111c0.148-0.199,0.431-0.199,0.479,0l0.516,2.111
							c0.019,0.079,0.081,0.134,0.165,0.146l2.246,0.339c0.211,0.032,0.232,0.301,0.035,0.456l-2.096,1.644
							c-0.078,0.061-0.129,0.15-0.136,0.237l-0.181,2.321c-0.017,0.218-0.288,0.385-0.458,0.282l-1.811-1.096
							C205.047,148.368,204.954,148.368,204.866,148.409z"/>
					</g>
					<g>
						<path fill="#C2D4D9" d="M216.473,148.409l-2.357,1.096c-0.222,0.103-0.41-0.063-0.318-0.282l0.977-2.321
							c0.036-0.087,0.03-0.175-0.018-0.237l-1.276-1.644c-0.12-0.155,0.035-0.424,0.262-0.456l2.414-0.339
							c0.09-0.013,0.179-0.067,0.238-0.146l1.568-2.111c0.148-0.199,0.431-0.199,0.48,0l0.516,2.111
							c0.019,0.079,0.081,0.134,0.165,0.146l2.246,0.339c0.211,0.032,0.232,0.301,0.035,0.456l-2.096,1.644
							c-0.078,0.061-0.129,0.15-0.136,0.237l-0.181,2.321c-0.017,0.218-0.288,0.385-0.458,0.282l-1.811-1.096
							C216.654,148.368,216.561,148.368,216.473,148.409z"/>
					</g>
				</g>
			</g>
			<g>
				<ellipse fill="#202F7C" cx="84.005" cy="114.812" rx="4.545" ry="6.335"/>
				<path fill="none" stroke="#202F7C" stroke-width="1.1018" stroke-miterlimit="10" d="M84.694,115.363
					c0,0,12.67,14.047,12.67,16.251c0,2.203-4.132,1.928-4.132,1.928"/>
				<circle fill="#202F7C" cx="92.544" cy="133.542" r="1.653"/>
			</g>
		</g>
		<g>
			<path fill="#4F57A0" d="M62.165,297.967c4.5,7.763,18.617,13.431,35.346,13.431s30.846-5.668,35.346-13.431H62.165z"/>
			<g>
				<polygon fill="#A9A7E7" points="157.599,258.144 149.116,297.26 143.932,297.26 148.645,259.087 				"/>
				<g>
					<path fill="#7A82CC" d="M173.152,261.443H97.214v-9.426h68.397c4.165,0,7.54,3.376,7.54,7.541V261.443z"/>
					<g>
						<path fill="#A9A7E7" d="M35.067,293.019l-18.379-88.392c-0.73-3.511,1.951-6.807,5.537-6.807h60.817
							c3.35,0,6.239,2.351,6.921,5.63l18.623,89.568"/>
						<path fill="#A9A7E7" d="M159.963,302.715H44.471c-3.897,0-7.327-2.572-8.418-6.314l-0.986-3.382h124.897V302.715z"/>
					</g>
				</g>
			</g>
			<rect x="93.977" y="307.157" fill="#E2E7FF" width="9.19" height="82.003"/>
			<polygon fill="#4F57A0" points="103.167,322.356 93.977,329.779 93.977,307.157 103.167,307.157 			"/>
			<polygon fill="#E2E7FF" points="102.884,376.939 99.523,376.939 98.683,376.939 95.322,376.939 60.872,390.616 137.334,390.616 
							"/>
			<g>
				<line fill="none" stroke="#4F57A0" stroke-miterlimit="10" x1="24.788" y1="203.867" x2="79.455" y2="203.867"/>
				<line fill="none" stroke="#4F57A0" stroke-miterlimit="10" x1="85.122" y1="210.2" x2="94.455" y2="257.2"/>
				<line fill="none" stroke="#4F57A0" stroke-miterlimit="10" x1="96.122" y1="265.534" x2="98.122" y2="279.2"/>
			</g>
		</g>
	</g>
	<g>
		<path fill="#CAE5FF" d="M350.964,124.867h-44.019c-2.27,0-4.004-2.029-3.65-4.271l0.333-2.11c0.284-1.796,1.832-3.119,3.65-3.119
			h44.019c2.27,0,4.004,2.028,3.65,4.271l-0.333,2.11C354.33,123.544,352.782,124.867,350.964,124.867z"/>
		<line fill="none" stroke="#FFFFFF" stroke-width="2" stroke-miterlimit="10" x1="308.788" y1="120.2" x2="346.788" y2="120.2"/>
	</g>
	<g>
		<path fill="#FF634D" d="M190.626,70.2h-12c-5.707,0-11.317,4.626-12.53,10.333v0c-1.213,5.707,2.43,10.333,8.137,10.333h2.605
			c2.911,6.892,9.786,6,9.786,6c-1.3-2.591-1.577-4.665-1.568-6h1.177c5.707,0,11.317-4.626,12.53-10.333v0
			C199.976,74.827,196.333,70.2,190.626,70.2z"/>
		<line fill="none" stroke="#FFFFFF" stroke-width="2" stroke-miterlimit="10" x1="173.522" y1="78.534" x2="184.855" y2="78.534"/>
		<line fill="none" stroke="#FFFFFF" stroke-width="2" stroke-miterlimit="10" x1="172.565" y1="83.034" x2="190.982" y2="83.034"/>
	</g>
</g>
</svg>
