<!-- Generator: Adobe Illustrator 23.0.0, SVG Export Plug-In  -->
<svg version="1.1" xmlns="http://www.w3.org/2000/svg" xmlns:xlink="http://www.w3.org/1999/xlink" x="0px" y="0px"
	 width="1713.78px" height="1079.92px" viewBox="0 0 1713.78 1079.92" style="enable-background:new 0 0 1713.78 1079.92;"
	 xml:space="preserve">
<style type="text/css">
	.st0{fill:#5D9DAE;}
	.st1{fill:#093E66;}
	.st2{fill:#F4F3F2;}
	.st3{fill:#FF4D3B;}
	.st4{fill:#F9984C;}
	.st5{fill:#2C589D;}
	.st6{fill:#E8669E;}
	.st7{fill:#F7C22B;}
	.st8{fill:#DCDFE6;}
	.st9{fill:#E0E0E0;}
	.st10{fill:#FFFFFF;}
	.st11{fill:#D2DFFF;}
	.st12{fill:#1B3361;}
	.st13{fill:#F9B893;}
	.st14{fill:#E7F0FF;}
	.st15{fill:#0D1D38;}
	.st16{fill:#E27E47;}
	.st17{fill:#FCB37A;}
	.st18{fill:#3E8ABE;}
	.st19{fill:#27597C;}
	.st20{fill:#B6463E;}
	.st21{fill:#24B187;}
	.st22{fill:#163650;}
	.st23{fill:#FFD577;}
	.st24{fill:#6A3E71;}
</style>
<defs>
</defs>
<path class="st0" d="M1699.65,993.78L1474.77,756.9V95.57c0-30.46-24.69-55.15-55.15-55.15h-101.11c0,0,1.36,481.06,1.99,706.44
	L27.96,1030.33l1633.15,49.56C1706.64,1081.28,1731.02,1026.82,1699.65,993.78"/>
<path class="st1" d="M1603.38,1030.33H27.96c-15.44,0-27.96-12.52-27.96-27.96v-34.92h1642.51v23.75
	C1642.51,1012.81,1624.99,1030.33,1603.38,1030.33"/>
<path class="st2" d="M1430.46,752.62H216.74V88.85C216.74,39.78,256.52,0,305.59,0h1036.02c49.07,0,88.85,39.78,88.85,88.85V752.62z
	"/>
<path class="st0" d="M1300.82,722.14H346.38c-25.78,0-46.68-20.9-46.68-46.68V127.57c0-30.47,24.7-55.17,55.17-55.17h937.46
	c30.47,0,55.17,24.7,55.17,55.17v547.89C1347.49,701.24,1326.6,722.14,1300.82,722.14"/>
<path class="st2" d="M932.21,146.87v358.21H360.59V146.87c0-19.64,15.93-35.57,35.57-35.57h500.48
	C916.28,111.3,932.21,127.23,932.21,146.87"/>
<path class="st0" d="M405.36,142.43c0,3.68-2.98,6.67-6.67,6.67c-3.68,0-6.67-2.98-6.67-6.67c0-3.68,2.98-6.67,6.67-6.67
	C402.38,135.76,405.36,138.75,405.36,142.43"/>
<path class="st3" d="M429.06,142.43c0,3.68-2.98,6.67-6.67,6.67c-3.68,0-6.67-2.98-6.67-6.67c0-3.68,2.98-6.67,6.67-6.67
	C426.08,135.76,429.06,138.75,429.06,142.43"/>
<path class="st4" d="M452.76,142.43c0,3.68-2.98,6.67-6.67,6.67s-6.67-2.98-6.67-6.67c0-3.68,2.98-6.67,6.67-6.67
	S452.76,138.75,452.76,142.43"/>
<rect x="360.59" y="166.41" class="st5" width="571.61" height="0.62"/>
<path class="st4" d="M467.92,266.99l47.01-5.1c-1.53-18.82-13.64-34.65-30.38-41.52L467.92,266.99z"/>
<path class="st3" d="M452.93,280.18l19.71-55.25c-4.21-1.17-8.63-1.81-13.21-1.81c-27.2,0-49.25,22.05-49.25,49.25
	c0,27.2,22.05,49.25,49.25,49.25c26.61,0,48.27-21.1,49.2-47.48L452.93,280.18z"/>
<rect x="418.23" y="382.03" class="st6" width="13.34" height="95.51"/>
<rect x="447.52" y="355.35" class="st5" width="13.34" height="122.18"/>
<rect x="476.82" y="410.61" class="st3" width="13.34" height="66.93"/>
<rect x="506.11" y="429.03" class="st7" width="13.34" height="48.51"/>
<rect x="535.41" y="370.91" class="st0" width="13.34" height="106.62"/>
<rect x="564.7" y="391.87" class="st4" width="13.34" height="85.66"/>
<rect x="630.84" y="231.98" class="st8" width="251.83" height="8.57"/>
<rect x="575.42" y="249.13" class="st8" width="307.24" height="8.57"/>
<rect x="575.42" y="266.28" class="st8" width="307.24" height="8.57"/>
<rect x="575.42" y="283.42" class="st8" width="307.24" height="8.57"/>
<rect x="575.42" y="300.57" class="st8" width="307.24" height="8.57"/>
<rect x="663.05" y="338.44" class="st8" width="219.62" height="8.57"/>
<rect x="614.72" y="355.59" class="st8" width="267.94" height="8.57"/>
<rect x="614.72" y="372.74" class="st8" width="267.94" height="8.57"/>
<rect x="614.72" y="389.89" class="st8" width="267.94" height="8.57"/>
<rect x="614.72" y="407.04" class="st8" width="267.94" height="8.57"/>
<path class="st9" d="M780.25,231.5v273.58H528.74V286.28c0-30.26,24.53-54.78,54.78-54.78H780.25z"/>
<path class="st0" d="M857.82,59.07h-74.17c-10.04,0-18.17-8.14-18.17-18.17v-1.76c0-10.04,8.14-18.17,18.17-18.17h74.17
	c10.04,0,18.17,8.14,18.17,18.17v1.76C875.99,50.93,867.86,59.07,857.82,59.07"/>
<path class="st8" d="M1430.46,748.81l211.97,219.12H0l217.45-216.74C217.45,751.19,1436.17,743.1,1430.46,748.81"/>
<path class="st10" d="M1126.55,266.91v358.21H554.94V266.91c0-19.64,15.93-35.57,35.57-35.57h500.48
	C1110.62,231.34,1126.55,247.27,1126.55,266.91"/>
<path class="st0" d="M599.71,262.47c0,3.68-2.98,6.67-6.67,6.67c-3.68,0-6.67-2.98-6.67-6.67c0-3.68,2.98-6.67,6.67-6.67
	C596.73,255.8,599.71,258.78,599.71,262.47"/>
<path class="st3" d="M623.41,262.47c0,3.68-2.98,6.67-6.67,6.67s-6.67-2.98-6.67-6.67c0-3.68,2.98-6.67,6.67-6.67
	S623.41,258.78,623.41,262.47"/>
<path class="st4" d="M647.11,262.47c0,3.68-2.98,6.67-6.67,6.67c-3.68,0-6.67-2.98-6.67-6.67c0-3.68,2.98-6.67,6.67-6.67
	C644.13,255.8,647.11,258.78,647.11,262.47"/>
<path class="st4" d="M1049.08,399.87c-4.45,25.38-26.6,44.67-53.26,44.67c-13.22,0-25.33-4.75-34.73-12.63l-20.76,17.71
	c14.51,13.61,34.02,21.95,55.49,21.95c41.62,0,75.91-31.34,80.57-71.71H1049.08z"/>
<path class="st3" d="M1002.87,336.85c25,3.26,44.63,23.59,46.81,48.92h27.1c-2.3-40.27-33.97-72.66-73.92-76.1V336.85z"/>
<path class="st0" d="M951.55,421.52c-6.17-8.79-9.8-19.49-9.8-31.05c0-27.47,20.49-50.16,47.02-53.62v-27.19
	c-41.49,3.58-74.06,38.38-74.06,80.8c0,18.25,6.03,35.1,16.21,48.65L951.55,421.52z"/>
<path class="st5" d="M975.88,396.79c0.93,0,1.6-0.41,1.98-1.24c0.39-0.83,0.58-2.18,0.58-4.05c-0.39,0.55-0.92,0.97-1.59,1.27
	c-0.67,0.3-1.42,0.45-2.25,0.45c-1.13,0-2.14-0.23-3.02-0.7c-0.88-0.47-1.57-1.16-2.08-2.09c-0.5-0.93-0.76-2.05-0.76-3.38
	c0-1.31,0.27-2.44,0.81-3.42c0.54-0.97,1.31-1.72,2.3-2.25c1-0.53,2.17-0.79,3.53-0.79c2.61,0,4.44,0.81,5.48,2.43
	c1.04,1.62,1.56,4.02,1.56,7.17c0,2.29-0.21,4.19-0.62,5.68c-0.41,1.49-1.11,2.63-2.09,3.4c-0.98,0.78-2.32,1.17-4.01,1.17
	c-1.34,0-2.48-0.27-3.43-0.79c-0.94-0.53-1.67-1.23-2.17-2.09c-0.5-0.86-0.79-1.82-0.86-2.86h4.18
	C973.71,396.09,974.52,396.79,975.88,396.79 M977.42,388.97c0.44-0.45,0.66-1.06,0.66-1.84c0-0.85-0.23-1.5-0.69-1.96
	c-0.46-0.46-1.08-0.69-1.85-0.69s-1.39,0.23-1.84,0.7c-0.45,0.47-0.67,1.11-0.67,1.92c0,0.76,0.22,1.37,0.67,1.84
	c0.45,0.47,1.1,0.7,1.95,0.7C976.39,389.64,976.98,389.42,977.42,388.97"/>
<path class="st5" d="M993.67,384.79c-0.35-0.33-0.86-0.49-1.51-0.49c-1.01,0-1.73,0.44-2.17,1.31c-0.44,0.87-0.67,2.26-0.69,4.14
	c0.39-0.62,0.95-1.1,1.68-1.46c0.73-0.35,1.54-0.53,2.42-0.53c1.73,0,3.12,0.55,4.17,1.64c1.05,1.09,1.57,2.62,1.57,4.58
	c0,1.29-0.26,2.42-0.78,3.39c-0.52,0.97-1.28,1.73-2.28,2.28c-1,0.55-2.18,0.82-3.53,0.82c-2.72,0-4.61-0.85-5.67-2.55
	c-1.06-1.7-1.59-4.15-1.59-7.35c0-3.35,0.56-5.85,1.68-7.48c1.12-1.63,2.92-2.45,5.39-2.45c1.32,0,2.44,0.26,3.35,0.78
	c0.91,0.52,1.6,1.2,2.06,2.05c0.47,0.85,0.75,1.77,0.83,2.78h-4.21C994.27,385.6,994.02,385.11,993.67,384.79 M990.43,392.01
	c-0.5,0.45-0.75,1.09-0.75,1.92c0,0.85,0.23,1.51,0.7,1.99c0.47,0.48,1.13,0.72,2,0.72c0.78,0,1.39-0.23,1.84-0.7
	c0.45-0.47,0.68-1.11,0.68-1.92c0-0.83-0.22-1.48-0.66-1.96c-0.44-0.48-1.08-0.71-1.91-0.71
	C991.56,391.34,990.93,391.56,990.43,392.01"/>
<path class="st5" d="M1002.58,382.6c0.82-0.78,1.88-1.16,3.19-1.16c1.31,0,2.36,0.39,3.18,1.16c0.81,0.78,1.22,1.88,1.22,3.31
	c0,1.43-0.41,2.53-1.22,3.31c-0.81,0.78-1.87,1.17-3.18,1.17c-1.31,0-2.37-0.39-3.19-1.17c-0.82-0.78-1.23-1.88-1.23-3.31
	C1001.35,384.48,1001.76,383.38,1002.58,382.6 M1004.47,385.91c0,1.2,0.42,1.8,1.27,1.8c0.41,0,0.72-0.15,0.95-0.45
	c0.23-0.3,0.34-0.75,0.34-1.35c0-1.22-0.43-1.83-1.3-1.83C1004.9,384.08,1004.47,384.69,1004.47,385.91 M1019.32,381.73
	l-10.19,18.64h-4.37l10.19-18.64H1019.32z M1015.17,392.87c0.81-0.78,1.87-1.16,3.18-1.16c1.31,0,2.36,0.39,3.18,1.16
	c0.81,0.78,1.22,1.88,1.22,3.31c0,1.43-0.41,2.53-1.22,3.31c-0.81,0.78-1.87,1.17-3.18,1.17c-1.31,0-2.36-0.39-3.18-1.17
	c-0.81-0.78-1.22-1.88-1.22-3.31C1013.95,394.75,1014.35,393.65,1015.17,392.87 M1017.38,394.81c-0.22,0.3-0.33,0.76-0.33,1.38
	c0,1.2,0.42,1.8,1.27,1.8c0.41,0,0.72-0.15,0.95-0.45c0.23-0.3,0.34-0.75,0.34-1.35c0-0.6-0.11-1.05-0.34-1.36
	c-0.23-0.31-0.55-0.46-0.95-0.46S1017.6,394.51,1017.38,394.81"/>
<path class="st4" d="M1026.65,543.17c-2.58,14.71-15.42,25.89-30.86,25.89c-7.66,0-14.68-2.75-20.12-7.32l-12.03,10.26
	c8.41,7.89,19.72,12.72,32.16,12.72c24.12,0,43.99-18.16,46.69-41.56H1026.65z"/>
<path class="st3" d="M999.88,506.65c14.49,1.89,25.87,13.67,27.13,28.35h15.71c-1.33-23.33-19.69-42.11-42.84-44.1V506.65z"/>
<path class="st0" d="M970.13,555.72c-3.58-5.09-5.68-11.3-5.68-17.99c0-15.92,11.87-29.07,27.25-31.07V490.9
	c-24.05,2.07-42.92,22.24-42.92,46.83c0,10.58,3.49,20.34,9.39,28.19L970.13,555.72z"/>
<path class="st5" d="M984.24,541.39c0.54,0,0.93-0.24,1.15-0.72c0.22-0.48,0.34-1.26,0.34-2.35c-0.23,0.32-0.53,0.56-0.92,0.74
	c-0.39,0.17-0.82,0.26-1.3,0.26c-0.65,0-1.24-0.14-1.75-0.41c-0.51-0.27-0.91-0.67-1.2-1.21c-0.29-0.54-0.44-1.19-0.44-1.96
	c0-0.76,0.16-1.42,0.47-1.98c0.31-0.56,0.76-1,1.33-1.3s1.26-0.46,2.05-0.46c1.51,0,2.57,0.47,3.18,1.41
	c0.6,0.94,0.91,2.33,0.91,4.16c0,1.33-0.12,2.43-0.36,3.29c-0.24,0.86-0.65,1.52-1.21,1.97c-0.57,0.45-1.34,0.67-2.32,0.67
	c-0.78,0-1.44-0.15-1.99-0.46c-0.55-0.31-0.97-0.71-1.26-1.21c-0.29-0.5-0.46-1.05-0.5-1.66h2.42
	C982.98,540.98,983.45,541.39,984.24,541.39 M985.13,536.85c0.26-0.26,0.38-0.62,0.38-1.07c0-0.49-0.13-0.87-0.4-1.14
	c-0.27-0.27-0.62-0.4-1.07-0.4c-0.45,0-0.81,0.14-1.07,0.41c-0.26,0.27-0.39,0.64-0.39,1.11c0,0.44,0.13,0.8,0.39,1.07
	c0.26,0.27,0.64,0.41,1.13,0.41C984.53,537.24,984.87,537.11,985.13,536.85"/>
<path class="st5" d="M994.55,534.43c-0.2-0.19-0.5-0.28-0.87-0.28c-0.58,0-1,0.25-1.26,0.76c-0.26,0.51-0.39,1.31-0.4,2.4
	c0.22-0.36,0.55-0.64,0.97-0.84c0.42-0.2,0.89-0.31,1.4-0.31c1,0,1.81,0.32,2.42,0.95c0.61,0.63,0.91,1.52,0.91,2.65
	c0,0.75-0.15,1.4-0.45,1.96c-0.3,0.56-0.74,1-1.32,1.32c-0.58,0.32-1.26,0.47-2.05,0.47c-1.58,0-2.67-0.49-3.28-1.48
	c-0.61-0.99-0.92-2.41-0.92-4.26c0-1.94,0.32-3.39,0.97-4.33c0.65-0.95,1.69-1.42,3.12-1.42c0.77,0,1.41,0.15,1.94,0.45
	c0.53,0.3,0.93,0.7,1.2,1.19c0.27,0.49,0.43,1.03,0.48,1.61h-2.44C994.89,534.9,994.75,534.62,994.55,534.43 M992.67,538.62
	c-0.29,0.26-0.44,0.63-0.44,1.11c0,0.49,0.14,0.87,0.41,1.15c0.27,0.28,0.66,0.41,1.16,0.41c0.45,0,0.81-0.14,1.07-0.41
	c0.26-0.27,0.39-0.64,0.39-1.11c0-0.48-0.13-0.86-0.38-1.14c-0.26-0.28-0.62-0.42-1.1-0.42
	C993.32,538.23,992.96,538.36,992.67,538.62"/>
<path class="st5" d="M999.71,533.16c0.47-0.45,1.09-0.68,1.85-0.68c0.76,0,1.37,0.23,1.84,0.68c0.47,0.45,0.71,1.09,0.71,1.92
	c0,0.83-0.23,1.47-0.71,1.92c-0.47,0.45-1.08,0.68-1.84,0.68c-0.76,0-1.37-0.23-1.85-0.68c-0.48-0.45-0.71-1.09-0.71-1.92
	C998.99,534.25,999.23,533.61,999.71,533.16 M1000.8,535.08c0,0.7,0.25,1.04,0.74,1.04c0.23,0,0.42-0.09,0.55-0.26
	c0.13-0.17,0.2-0.43,0.2-0.78c0-0.71-0.25-1.06-0.75-1.06C1001.05,534.02,1000.8,534.38,1000.8,535.08 M1009.41,532.66l-5.91,10.8
	h-2.53l5.91-10.8H1009.41z M1007,539.12c0.47-0.45,1.08-0.67,1.84-0.67c0.76,0,1.37,0.22,1.84,0.67c0.47,0.45,0.71,1.09,0.71,1.92
	c0,0.83-0.23,1.47-0.71,1.92c-0.47,0.45-1.08,0.68-1.84,0.68c-0.76,0-1.37-0.23-1.84-0.68c-0.47-0.45-0.71-1.09-0.71-1.92
	C1006.3,540.21,1006.53,539.57,1007,539.12 M1008.28,540.24c-0.13,0.17-0.19,0.44-0.19,0.8c0,0.7,0.25,1.04,0.74,1.04
	c0.23,0,0.42-0.09,0.55-0.26c0.13-0.17,0.2-0.43,0.2-0.78s-0.07-0.61-0.2-0.79c-0.13-0.18-0.32-0.27-0.55-0.27
	S1008.41,540.06,1008.28,540.24"/>
<path class="st5" d="M611.51,461.36h237.81v-83.73c0,0-32.64-22.68-71.5,15.7s-57.51-3.49-96.37,15.7
	C642.6,428.22,611.51,461.36,611.51,461.36"/>
<path class="st0" d="M651.04,461.36h198.28v-66.25c0,0-27.22-17.94-59.61,12.42c-32.4,30.36-47.95-2.76-80.35,12.42
	C676.96,435.14,651.04,461.36,651.04,461.36"/>
<path class="st4" d="M670,461.36h179.32v-50.29c0,0-24.61-13.62-53.91,9.43c-29.3,23.05-43.37-2.1-72.67,9.43
	C693.44,441.46,670,461.36,670,461.36"/>
<rect x="596.33" y="319.19" class="st5" width="1.94" height="142.17"/>
<path class="st5" d="M602.69,327.89c0.39,0.25,1.3,0.65,2.26,0.65c1.78,0,2.33-1.13,2.31-1.98c-0.01-1.43-1.3-2.04-2.64-2.04h-0.77
	v-1.04h0.77c1.01,0,2.28-0.52,2.28-1.73c0-0.82-0.52-1.54-1.79-1.54c-0.82,0-1.6,0.36-2.04,0.68l-0.36-1.01
	c0.53-0.39,1.57-0.79,2.67-0.79c2.01,0,2.92,1.19,2.92,2.44c0,1.05-0.63,1.95-1.89,2.41v0.03c1.26,0.25,2.28,1.19,2.28,2.63
	c0,1.64-1.27,3.07-3.73,3.07c-1.15,0-2.15-0.36-2.66-0.69L602.69,327.89z"/>
<path class="st5" d="M617.22,324.25c0,3.47-1.29,5.39-3.55,5.39c-2,0-3.35-1.87-3.38-5.25c0-3.43,1.48-5.31,3.55-5.31
	C616,319.08,617.22,321,617.22,324.25 M611.67,324.41c0,2.66,0.82,4.17,2.08,4.17c1.41,0,2.09-1.65,2.09-4.26
	c0-2.52-0.65-4.17-2.08-4.17C612.55,320.15,611.67,321.63,611.67,324.41"/>
<path class="st5" d="M602.36,377.64v-0.85l1.08-1.05c2.61-2.48,3.79-3.8,3.8-5.34c0-1.04-0.5-2-2.03-2c-0.93,0-1.7,0.47-2.17,0.87
	l-0.44-0.98c0.71-0.6,1.71-1.04,2.89-1.04c2.2,0,3.13,1.51,3.13,2.97c0,1.89-1.37,3.41-3.52,5.49l-0.82,0.75v0.03h4.59v1.15H602.36z
	"/>
<path class="st5" d="M617.22,372.42c0,3.47-1.29,5.39-3.55,5.39c-2,0-3.35-1.87-3.38-5.25c0-3.43,1.48-5.31,3.55-5.31
	C616,367.24,617.22,369.16,617.22,372.42 M611.67,372.57c0,2.66,0.82,4.17,2.08,4.17c1.41,0,2.09-1.65,2.09-4.26
	c0-2.52-0.65-4.17-2.08-4.17C612.55,368.31,611.67,369.79,611.67,372.57"/>
<polygon class="st5" points="605.37,416.87 605.34,416.87 603.56,417.83 603.29,416.78 605.52,415.58 606.7,415.58 606.7,425.8 
	605.37,425.8 "/>
<path class="st5" d="M617.22,420.58c0,3.47-1.29,5.39-3.55,5.39c-2,0-3.35-1.87-3.38-5.25c0-3.43,1.48-5.31,3.55-5.31
	C616,415.41,617.22,417.33,617.22,420.58 M611.67,420.74c0,2.66,0.82,4.17,2.08,4.17c1.41,0,2.09-1.65,2.09-4.26
	c0-2.52-0.65-4.17-2.08-4.17C612.55,416.48,611.67,417.96,611.67,420.74"/>
<rect x="653.7" y="482.54" class="st11" width="201.33" height="13.34"/>
<rect x="595.91" y="503.97" class="st11" width="259.13" height="13.34"/>
<rect x="595.91" y="525.41" class="st11" width="259.13" height="13.34"/>
<rect x="595.91" y="546.84" class="st11" width="259.13" height="13.34"/>
<rect x="595.91" y="568.28" class="st11" width="259.13" height="13.34"/>
<rect x="554.94" y="286.45" class="st5" width="571.61" height="0.62"/>
<path class="st12" d="M1222.31,767.25c0,0-13.59,0.91-19.93-1.36c3.32-16.62-4.53-79.47-11.13-125.8
	c-4.21-29.44-7.9-52.23-7.9-52.23c-5.59,5.58-8.94,28.58-10.94,56.38c-3.82,53.33-2.65,124.38-2.65,124.38l-20.39,1.36
	c-19.02-63.87-23.1-252.78-23.1-252.78c0-31.25,74.75-82.89,99.21-17.66S1222.31,767.25,1222.31,767.25"/>
<path class="st13" d="M1274.13,483.07c-0.13-0.01-0.24,0.08-0.25,0.21c-0.06,1.12-0.47,6.01-2.71,10.64
	c-2.55,5.27-4.25,12.74-3.91,17.84c0.34,5.1-2.04,10.02,0.85,10.53c2.05,0.36,4.1-7.07,5.12-11.41c0.06-0.27,0.46-0.21,0.44,0.07
	c-0.47,6.3-1.7,20.34-3.52,24.25c-2.38,5.1-2.04,8.15,1.53,5.1c3.39-2.9,7.85-16.07,8.29-17.39c0.02-0.07,0.08-0.12,0.15-0.14
	c1.19-0.36,11.74-3.63,13.82-7.95c2.21-4.59-3.74-22.59-2.89-26.16l0.79-3.32c0.03-0.13-0.06-0.26-0.19-0.28L1274.13,483.07z"/>
<polygon class="st14" points="1273.72,481.52 1272.93,485.94 1291.39,488.2 1292.64,482.08 "/>
<path class="st13" d="M1052.3,460.36c0,0-15.94,2.77-18.01,0.69c-2.08-2.08-10.74-6.58-13.16-5.54c-2.43,1.04,5.54,9.7,5.54,9.7
	s-16.97,2.42-28.75-2.77c-11.78-5.2-3.12,14.2,10.39,18.01c13.51,3.81,30.48-2.43,30.48-2.43l16.63-1.73L1052.3,460.36z"/>
<rect x="1044.22" y="456.55" transform="matrix(0.9953 -0.0973 0.0973 0.9953 -40.5988 104.6016)" class="st14" width="15.29" height="23.78"/>
<path class="st12" d="M1145.98,304.51c0,0-15.63-33.98,7.47-50.96c0,0,14.27-17.67,30.58-8.15c16.31,9.51,28.54,29.9,27.18,60.48
	s-4.08,40.09-4.08,40.09h-19.03l-23.78-16.99L1145.98,304.51z"/>
<path class="st5" d="M1322.65,400.32c-5.44-8.15-71.8-55.27-71.8-55.27s0-3.62-2.26-7.02c-2.27-3.4-41-13.36-41-13.36l-53.46-2.49
	c0,0-42.81,23.1-44.17,25.14c-1.36,2.04-15.63,97.17-16.31,99.21c-0.68,2.04-44.17,7.47-44.17,7.47l2.04,27.86
	c0,0,52.32-2.04,66.59-9.51c14.27-7.47,10.87-65.23,10.87-65.23s4.08,28.54,4.08,50.28c0,21.74-12.91,55.72-12.91,55.72l45.53,13.59
	l9.51-15.63l8.15,19.71l58.44-27.18c0,0-9.51-20.39-16.99-42.13c-7.47-21.74,14.72-74.74,14.72-74.74s25.76,25.38,46.43,30.23
	l-12.91,66.26l20.38,2.04C1293.43,485.26,1328.09,408.47,1322.65,400.32"/>
<path class="st14" d="M1154.13,322.17l2.38,16.99l11.21,4.76l-7.47,13.25l22.42,46.88l14.61-55.72l-9.51-5.44l15.29-19.03
	C1203.06,323.87,1193.2,315.04,1154.13,322.17"/>
<polygon class="st13" points="1160.16,328.12 1174.06,336.67 1189.6,324.8 1190.15,307 1159.34,307 "/>
<path class="st13" d="M1194.67,305.19c0,0,5.2-2.15,6.55-7.95c0.16-1.4,0.24-2.83,0.24-4.28c-0.91-9.06-8.61,2.72-8.61,2.72
	l-3.17-6.8c-18.38-5.08-26.96-21.29-28.97-25.64c-9.4,5.38-15.88,16.66-15.88,29.71c0,18.26,12.68,33.07,28.31,33.07
	c6.7,0,12.85-2.72,17.7-7.27L1194.67,305.19z"/>
<path class="st15" d="M1149.38,769.97c-4.08,0-31.26,13.59-27.86,16.31c3.4,2.72,49.6-4.08,49.6-4.08l-1.36-13.59L1149.38,769.97z"
	/>
<path class="st15" d="M1221.68,767.25c4.08,0,31.26,13.59,27.86,16.31c-3.4,2.72-49.6-4.08-49.6-4.08l1.36-13.59L1221.68,767.25z"/>
<path class="st15" d="M1181.66,569.18c11.3-12.52,9.97,56.79,9.59,70.91c-4.21-29.44-7.9-52.22-7.9-52.22
	c-5.59,5.58-8.94,28.57-10.94,56.38l-0.28,0.03"/>
<polygon class="st15" points="1182.67,404.05 1188.45,416.97 1184.37,491.71 1175.2,511.08 1190.48,492.05 1192.86,416.29 "/>
<path class="st12" d="M1161.01,295.25c0,0-7.98,6.8-1.78,10.19c6.2,3.4,8.49-1.61,8.49-1.61s-7.47,3.06-8.15-0.34
	C1158.89,300.09,1161.01,295.25,1161.01,295.25"/>
<path class="st12" d="M1154.73,293.25c0,2.04-0.93,3.7-2.08,3.7s-2.08-1.65-2.08-3.7c0-2.04,0.93-3.69,2.08-3.69
	S1154.73,291.21,1154.73,293.25"/>
<path class="st12" d="M1172.31,293.25c0,2.04-0.93,3.7-2.08,3.7c-1.15,0-2.08-1.65-2.08-3.7c0-2.04,0.93-3.69,2.08-3.69
	C1171.38,289.56,1172.31,291.21,1172.31,293.25"/>
<path class="st16" d="M1156.17,299.07c0,0.33-1.41,0.59-3.14,0.59s-3.14-0.27-3.14-0.59c0-0.33,1.41-0.59,3.14-0.59
	S1156.17,298.74,1156.17,299.07"/>
<path class="st16" d="M1173.67,298.56c0,0.33-1.41,0.6-3.14,0.6c-1.73,0-3.14-0.27-3.14-0.6c0-0.33,1.41-0.59,3.14-0.59
	C1172.26,297.97,1173.67,298.23,1173.67,298.56"/>
<path class="st14" d="M1155.49,309.01c0,0,9.17,0.43,16.82-2.21c7.65-2.63-2.46,9.51-8.58,8.07
	C1157.61,313.43,1153.2,309.77,1155.49,309.01"/>
<path class="st12" d="M1167.08,283.85c-0.65,0.17-1.14,0.75-1.1,1.42c0.03,0.47,0.3,0.94,1.18,1.05c1.97,0.25,4.9-1.4,8.77,1.02
	c0,0,1.78,1.14-0.32-1.4C1173.67,283.57,1170.57,282.91,1167.08,283.85"/>
<path class="st12" d="M1156.68,284.1c0.65,0.17,1.14,0.75,1.1,1.42c-0.03,0.47-0.3,0.94-1.18,1.05c-1.97,0.25-4.9-1.4-8.77,1.02
	c0,0-1.78,1.14,0.32-1.4C1150.09,283.83,1153.19,283.17,1156.68,284.1"/>
<path class="st12" d="M1175.54,341.2l9.34,4.93l-7.47-1.7l9.51,43.66l-4.25,15.97l-7.3-14.78l-1.87-44.34l-1.7,2.72
	C1171.8,347.66,1171.29,343.24,1175.54,341.2"/>
<path class="st0" d="M1094.94,556.47c0,0-20.05-30.33-4.89-32.66c15.17-2.33,49,0,62.99,28.58c14,28.58-9.92,79.91-11.67,79.91
	s-33.25,4.08-41.41-26.25L1094.94,556.47z"/>
<polygon class="st17" points="1234.64,866.06 1310.55,866.06 1309.25,771.61 1286.99,729.05 1251.65,756.98 "/>
<path class="st17" d="M1337.96,649.2l-7.13-22.9c0,0-22.91-6.76-22.53-31.92c0.38-25.16,6.76-39.43,6.76-39.43l3.76,22.9
	c0,0,19.9-3,16.9,9.39s-11.64,10.89-11.64,10.89s11.27,36.42,36.42,34.17h8.64l8.26,14.64L1337.96,649.2z"/>
<path class="st18" d="M1310.55,863.87l-1.31-92.94l-22.26-41.89l-35.34,27.49c0,0,6.54-34.03,10.47-45.81
	c3.93-11.78,19.64-65.45,91.63-68.07c72-2.62,86.39,41.89,86.39,41.89l2.62,52.36l-103.41,128.28L1310.55,863.87"/>
<polygon class="st4" points="1286.99,759.64 1271.86,866.06 1310.55,866.06 1309.25,771.61 1286.99,729.05 1251.65,756.98 "/>
<path class="st19" d="M1463.71,866.06l11.78-143.04c0,0,8.51-39.09-17.02-39.92c-25.53-0.83-130.9,0-130.9,0
	s-24.22-0.83-26.18,33.26c-1.96,34.1-13.74,149.7-13.74,149.7H1463.71z"/>
<path class="st19" d="M1495.12,940.72l11.78-217.7c0,0,8.51-39.09-17.02-39.92c-25.53-0.83-130.9,0-130.9,0s-24.22-0.83-26.18,33.27
	c-1.96,34.1-13.75,224.35-13.75,224.35H1495.12z"/>
<path class="st20" d="M1311.21,566.08c0,0-32.07-18.33-22.25-29.45c9.82-11.13,73.96-37.31,93.59-0.65c0,0,17.67,4.58,18.32,21.6
	c0.66,17.02-10.47,75.27-30.76,77.23c-20.29,1.96-20.29,1.31-30.11-4.58c-9.82-5.89-15.71-15.71-20.29-22.25
	c-4.58-6.54-6.54-11.78-5.24-18.33C1315.79,583.1,1311.21,566.08,1311.21,566.08"/>
<polygon class="st17" points="1033.7,815.09 1093.11,815.09 1092.09,741.18 1074.67,707.87 1047.01,729.73 "/>
<path class="st17" d="M1114.56,645.38l-5.58-17.92c0,0-27.16-9.88-26.87-29.57c0.29-19.69,12.83-41.41,12.83-41.41l4.63,33.08
	c0,0,15.57-2.35,13.22,7.35c-2.35,9.7-9.11,8.52-9.11,8.52s8.82,28.5,28.5,26.74h6.76l6.46,11.46L1114.56,645.38z"/>
<path class="st21" d="M1093.11,813.38l-1.02-72.73l-17.42-32.78l-27.66,21.51c0,0,5.12-26.63,8.19-35.85
	c3.08-9.22,15.37-51.22,71.71-53.27c56.34-2.05,67.61,32.78,67.61,32.78l2.05,40.98l-80.93,100.39L1093.11,813.38"/>
<polygon class="st21" points="1074.67,731.81 1062.82,815.09 1093.11,815.09 1092.09,741.18 1074.67,707.87 1047.01,729.73 "/>
<path class="st19" d="M1212.96,815.09l9.22-111.94c0,0,6.66-30.59-13.32-31.24c-19.97-0.65-102.44,0-102.44,0
	s-18.95-0.65-20.49,26.03c-1.54,26.68-10.76,117.15-10.76,117.15H1212.96z"/>
<path class="st22" d="M1237.55,815.09l9.22-111.94c0,0,6.66-30.59-13.32-31.24c-19.97-0.65-102.44,0-102.44,0
	s-18.95-0.65-20.49,26.03c-1.54,26.68-10.76,117.15-10.76,117.15H1237.55z"/>
<polygon class="st17" points="1156.77,940.42 1232.69,940.42 1231.38,845.98 1209.12,803.42 1173.78,831.35 "/>
<path class="st17" d="M1260.1,723.57l-7.14-22.9c0,0-22.9-6.76-22.53-31.92c0.38-25.16,6.76-39.43,6.76-39.43l3.76,22.9
	c0,0,19.9-3,16.9,9.39c-3,12.39-11.64,10.89-11.64,10.89s11.27,36.42,36.42,34.17h8.64l8.26,14.64L1260.1,723.57z"/>
<path class="st0" d="M1232.69,938.24l-1.31-92.94l-22.26-41.89l-35.34,27.48c0,0,6.55-34.03,10.47-45.81
	c3.93-11.78,19.64-65.45,91.63-68.07c72-2.62,86.39,41.89,86.39,41.89l2.62,52.36l-103.41,128.28L1232.69,938.24"/>
<polygon class="st0" points="1209.13,834.01 1193.99,940.42 1232.69,940.42 1231.38,845.98 1209.13,803.42 1173.78,831.35 "/>
<path class="st19" d="M1385.84,940.42l11.78-143.04c0,0,8.51-39.09-17.02-39.92c-25.53-0.83-130.9,0-130.9,0
	s-24.22-0.83-26.18,33.27c-1.96,34.1-13.74,149.7-13.74,149.7H1385.84z"/>
<path class="st22" d="M1417.26,940.42l11.78-143.04c0,0,8.51-39.09-17.02-39.92c-25.53-0.83-130.9,0-130.9,0
	s-24.22-0.83-26.18,33.27c-1.96,34.1-13.74,149.7-13.74,149.7H1417.26z"/>
<polygon class="st17" points="904.79,940.42 980.71,940.42 979.41,845.98 957.15,803.42 921.81,831.35 "/>
<path class="st17" d="M1008.12,723.57l-7.13-22.9c0,0-22.9-6.76-22.53-31.92c0.38-25.16,6.76-39.43,6.76-39.43l3.76,22.9
	c0,0,19.9-3,16.9,9.39c-3,12.39-11.64,10.89-11.64,10.89s11.27,36.42,36.42,34.17h8.64l8.26,14.64L1008.12,723.57z"/>
<path class="st23" d="M980.71,938.24l-1.3-92.94l-22.26-41.89l-35.34,27.48c0,0,6.54-34.03,10.47-45.81
	c3.93-11.78,19.64-65.45,91.63-68.07c72-2.62,86.39,41.89,86.39,41.89l2.62,52.36l-103.41,128.28L980.71,938.24"/>
<polygon class="st23" points="957.15,834.01 942.01,940.42 980.71,940.42 979.41,845.98 957.15,803.42 921.81,831.35 "/>
<path class="st19" d="M1133.86,940.42l11.78-143.04c0,0,8.51-39.09-17.02-39.92c-25.53-0.83-130.9,0-130.9,0
	s-24.22-0.83-26.18,33.27c-1.96,34.1-13.74,149.7-13.74,149.7H1133.86z"/>
<path class="st22" d="M1165.28,940.42l11.78-143.04c0,0,8.51-39.09-17.02-39.92c-25.53-0.83-130.9,0-130.9,0
	s-24.22-0.83-26.18,33.27c-1.96,34.1-13.74,149.7-13.74,149.7H1165.28z"/>
<path class="st5" d="M981.37,640.45c0,0-32.07-18.32-22.25-29.45c9.82-11.13,73.96-37.31,93.59-0.65c0,0,17.67,4.58,18.33,21.6
	c0.65,17.02-10.47,75.27-30.76,77.23c-20.29,1.96-20.29,1.31-30.11-4.58c-9.82-5.89-15.71-15.71-20.29-22.25
	c-4.58-6.54-6.54-11.78-5.24-18.33C985.95,657.47,981.37,640.45,981.37,640.45"/>
<path class="st24" d="M1237.19,629.32c0,0-5.98,36.22,7.14,51.97c13.12,15.75,27.12,28,22.75,42.87c-4.38,14.87-8.75,35,8.75,58.62
	c17.5,23.62-0.88,40.25,37.62,35.87c38.5-4.37,53.37,14.87,54.24-15.75s-8.75-35.87-25.37-55.12
	c-16.62-19.25-46.37-32.37-42.87-47.24c3.5-14.87,16.62-63.87-38.5-82.24c-55.12-18.37-28,23.04-28,23.04L1237.19,629.32z"/>
<polygon class="st17" points="391.85,858.83 315.93,858.83 317.23,764.39 339.49,721.82 374.83,749.75 "/>
<path class="st22" d="M315.27,558.85c0,0,32.07-18.33,22.25-29.45c-9.82-11.13-73.96-37.31-93.59-0.65c0,0-17.67,4.58-18.33,21.6
	c-0.65,17.02,10.47,75.27,30.76,77.23c20.29,1.96,20.29,1.31,30.11-4.58c9.82-5.89,15.71-15.71,20.29-22.25
	c4.58-6.54,6.55-11.78,5.24-18.33C310.69,575.87,315.27,558.85,315.27,558.85"/>
<path class="st17" d="M288.52,641.97l7.13-22.9c0,0,22.9-6.76,22.53-31.92c-0.38-25.16-6.76-39.43-6.76-39.43l-3.76,22.9
	c0,0-19.9-3-16.9,9.39s11.64,10.89,11.64,10.89s-11.26,36.42-36.42,34.17h-8.64l-8.26,14.64L288.52,641.97z"/>
<path class="st18" d="M315.93,856.65l1.3-92.94l22.26-41.89l35.34,27.49c0,0-6.55-34.03-10.47-45.81
	c-3.93-11.78-19.64-65.45-91.63-68.07c-72-2.62-86.39,41.89-86.39,41.89l-2.62,52.36l103.41,128.28L315.93,856.65"/>
<polygon class="st4" points="339.49,752.42 354.62,858.83 315.93,858.83 317.23,764.39 339.49,721.82 374.83,749.75 "/>
<path class="st19" d="M162.78,858.83l-11.78-143.04c0,0-8.51-39.09,17.02-39.92c25.52-0.83,130.9,0,130.9,0s24.22-0.83,26.18,33.27
	c1.96,34.1,13.74,149.7,13.74,149.7H162.78z"/>
<path class="st19" d="M131.36,933.49l-11.78-217.7c0,0-8.51-39.09,17.02-39.92c25.52-0.83,130.9,0,130.9,0s24.22-0.83,26.18,33.27
	c1.96,34.1,13.74,224.35,13.74,224.35H131.36z"/>
<polygon class="st17" points="592.78,807.86 533.37,807.86 534.39,733.95 551.81,700.64 579.47,722.5 "/>
<path class="st17" d="M511.92,638.15l5.58-17.92c0,0,27.16-9.88,26.87-29.57c-0.29-19.69-12.83-41.41-12.83-41.41l-4.63,33.08
	c0,0-15.57-2.35-13.22,7.35c2.35,9.7,9.11,8.52,9.11,8.52s-8.82,28.5-28.5,26.74h-6.76l-6.46,11.46L511.92,638.15z"/>
<path class="st21" d="M533.37,806.15l1.02-72.73l17.42-32.78l27.66,21.51c0,0-5.12-26.63-8.19-35.85
	c-3.08-9.22-15.37-51.22-71.71-53.27c-56.34-2.05-67.61,32.78-67.61,32.78l-2.05,40.98l80.92,100.39L533.37,806.15"/>
<polygon class="st21" points="551.81,724.58 563.66,807.86 533.37,807.86 534.4,733.95 551.81,700.64 579.47,722.5 "/>
<path class="st19" d="M413.52,807.86l-9.22-111.94c0,0-6.66-30.59,13.32-31.24c19.98-0.65,102.44,0,102.44,0s18.95-0.65,20.49,26.03
	c1.54,26.68,10.76,117.15,10.76,117.15H413.52z"/>
<path class="st22" d="M388.94,807.86l-9.22-111.94c0,0-6.66-30.59,13.32-31.24c19.98-0.65,102.44,0,102.44,0s18.95-0.65,20.49,26.03
	c1.54,26.68,10.76,117.15,10.76,117.15H388.94z"/>
<polygon class="st17" points="469.71,933.2 393.8,933.2 395.1,838.76 417.36,796.19 452.7,824.12 "/>
<path class="st17" d="M366.39,716.34l7.13-22.9c0,0,22.9-6.76,22.53-31.92c-0.38-25.16-6.76-39.43-6.76-39.43l-3.76,22.9
	c0,0-19.9-3-16.9,9.39c3,12.39,11.64,10.89,11.64,10.89s-11.26,36.42-36.42,34.17h-8.64l-8.26,14.64L366.39,716.34z"/>
<path class="st0" d="M393.8,931.02l1.3-92.94l22.26-41.89l35.34,27.48c0,0-6.55-34.03-10.47-45.81
	c-3.93-11.78-19.64-65.45-91.63-68.07c-72-2.62-86.39,41.89-86.39,41.89l-2.62,52.36l103.41,128.28L393.8,931.02"/>
<polygon class="st0" points="417.36,826.78 432.49,933.2 393.8,933.2 395.1,838.76 417.36,796.19 452.7,824.12 "/>
<path class="st19" d="M240.64,933.2l-11.78-143.04c0,0-8.51-39.09,17.02-39.92c25.52-0.83,130.9,0,130.9,0s24.22-0.83,26.18,33.27
	c1.96,34.1,13.74,149.7,13.74,149.7H240.64z"/>
<path class="st22" d="M209.23,933.2l-11.78-143.04c0,0-8.51-39.09,17.02-39.92c25.52-0.83,130.9,0,130.9,0s24.22-0.83,26.18,33.27
	c1.96,34.1,13.74,149.7,13.74,149.7H209.23z"/>
<path class="st20" d="M393.3,585.7c-1.3,0-2.57,0.1-3.82,0.28c-5.51-7.04-14.68-11.65-25.06-11.65c-10.09,0-19.03,4.36-24.59,11.07
	c-5.58-2.23-11.77-3.48-18.28-3.48c-24.64,0-44.62,17.76-44.62,39.66c0,0.44,0.02,0.88,0.04,1.32c-1.73,3.73-2.66,7.7-2.66,11.81
	c0,1.83,0.19,3.63,0.55,5.39c-6.2,6.29-10.19,14.33-10.91,23.18c-0.47,1.71-0.79,3.46-0.93,5.24c-8.77,6.92-14.08,15.89-14.08,25.69
	c0,21.91,26.44,39.66,59.06,39.66c31.58,0,57.38-16.65,58.98-37.6c8.77-6.92,14.08-15.89,14.08-25.69c0-3.68-0.76-7.23-2.15-10.61
	c8.45-6.86,13.53-15.66,13.53-25.26c0-2.41-0.34-4.77-0.95-7.07c0.6,0.04,1.21,0.07,1.83,0.07c13.05,0,23.62-9.4,23.62-21
	C416.93,595.1,406.35,585.7,393.3,585.7"/>
<polygon class="st17" points="721.69,933.2 645.77,933.2 647.08,838.76 669.33,796.19 704.67,824.12 "/>
<path class="st22" d="M645.11,633.22c0,0,32.07-18.32,22.25-29.45c-9.82-11.13-73.96-37.31-93.59-0.65c0,0-17.67,4.58-18.33,21.6
	c-0.65,17.02,10.47,75.27,30.76,77.23c20.29,1.96,20.29,1.31,30.11-4.58c9.82-5.89,15.71-15.71,20.29-22.25
	c4.58-6.54,6.55-11.78,5.24-18.33C640.53,650.24,645.11,633.22,645.11,633.22"/>
<path class="st17" d="M618.36,716.34l7.13-22.9c0,0,22.9-6.76,22.53-31.92c-0.38-25.16-6.76-39.43-6.76-39.43l-3.76,22.9
	c0,0-19.9-3-16.9,9.39c3,12.39,11.64,10.89,11.64,10.89s-11.26,36.42-36.42,34.17h-8.64l-8.26,14.64L618.36,716.34z"/>
<path class="st4" d="M645.77,931.02l1.3-92.94l22.26-41.89l35.34,27.48c0,0-6.55-34.03-10.47-45.81
	c-3.93-11.78-19.64-65.45-91.63-68.07c-72-2.62-86.39,41.89-86.39,41.89l-2.62,52.36l103.41,128.28L645.77,931.02"/>
<polygon class="st4" points="669.33,826.78 684.47,933.2 645.77,933.2 647.08,838.76 669.33,796.19 704.67,824.12 "/>
<path class="st19" d="M492.62,933.2l-11.78-143.04c0,0-8.51-39.09,17.02-39.92c25.53-0.83,130.9,0,130.9,0s24.22-0.83,26.18,33.27
	c1.96,34.1,13.74,149.7,13.74,149.7H492.62z"/>
<path class="st22" d="M461.2,933.2l-11.78-143.04c0,0-8.51-39.09,17.02-39.92c25.53-0.83,130.9,0,130.9,0s24.22-0.83,26.18,33.27
	c1.96,34.1,13.74,149.7,13.74,149.7H461.2z"/>
<path class="st24" d="M522.8,598.19c0,0,4.47,32.91-6.03,47.3c-10.5,14.39-24.89,14.78-36.55,10.5
	c-11.67-4.28-19.44-31.5-8.17-42.77c11.28-11.28,15.94-13.22,15.94-13.22s-19.05-16.72-12.05-31.11c7-14.39,2.33-37.72,28.77-36.94
	c26.44,0.78,29.16-3.5,33.05,3.5c3.89,7-7.39,30.33-7.39,30.33s1.17,19.05-7.39,31.11"/>
</svg>
